<mxfile host="65bd71144e">
    <diagram id="HNRro0QWXguAWzRLKKRP" name="Page-1">
        <mxGraphModel dx="1634" dy="1703" grid="1" gridSize="10" guides="1" tooltips="1" connect="1" arrows="1" fold="1" page="1" pageScale="1" pageWidth="850" pageHeight="1100" math="0" shadow="0">
            <root>
                <mxCell id="0"/>
                <mxCell id="1" parent="0"/>
                <mxCell id="25btfBUaxP0-cFL3U1zC-7" value="" style="rounded=0;whiteSpace=wrap;html=1;fillColor=#b1ddf0;strokeColor=#039E18;" parent="1" vertex="1">
                    <mxGeometry width="850" height="1100" as="geometry"/>
                </mxCell>
                <mxCell id="25btfBUaxP0-cFL3U1zC-9" value="" style="rounded=0;whiteSpace=wrap;html=1;fillColor=#6E6E6E;fontColor=#ffffff;strokeColor=#314354;" parent="1" vertex="1">
                    <mxGeometry width="850" height="60" as="geometry"/>
                </mxCell>
                <mxCell id="25btfBUaxP0-cFL3U1zC-10" value="" style="rounded=0;whiteSpace=wrap;html=1;fillColor=#6E6E6E;fontColor=#ffffff;strokeColor=#314354;" parent="1" vertex="1">
                    <mxGeometry y="920" width="850" height="180" as="geometry"/>
                </mxCell>
                <mxCell id="25btfBUaxP0-cFL3U1zC-14" value="logo" style="whiteSpace=wrap;html=1;aspect=fixed;" parent="1" vertex="1">
                    <mxGeometry x="50" y="10" width="40" height="40" as="geometry"/>
                </mxCell>
                <mxCell id="25btfBUaxP0-cFL3U1zC-21" value="Nhân viên" style="text;strokeColor=none;fillColor=none;align=left;verticalAlign=top;spacingLeft=4;spacingRight=4;overflow=hidden;rotatable=0;points=[[0,0.5],[1,0.5]];portConstraint=eastwest;" parent="1" vertex="1">
                    <mxGeometry x="130" y="17" width="70" height="26" as="geometry"/>
                </mxCell>
                <mxCell id="25btfBUaxP0-cFL3U1zC-22" value="Phòng Ban" style="text;strokeColor=none;fillColor=none;align=left;verticalAlign=top;spacingLeft=4;spacingRight=4;overflow=hidden;rotatable=0;points=[[0,0.5],[1,0.5]];portConstraint=eastwest;" parent="1" vertex="1">
                    <mxGeometry x="230" y="17" width="80" height="26" as="geometry"/>
                </mxCell>
                <mxCell id="25btfBUaxP0-cFL3U1zC-23" value="Bảng Lương" style="text;strokeColor=none;fillColor=none;align=left;verticalAlign=top;spacingLeft=4;spacingRight=4;overflow=hidden;rotatable=0;points=[[0,0.5],[1,0.5]];portConstraint=eastwest;" parent="1" vertex="1">
                    <mxGeometry x="330" y="17" width="80" height="26" as="geometry"/>
                </mxCell>
                <mxCell id="25btfBUaxP0-cFL3U1zC-24" value="" style="whiteSpace=wrap;html=1;aspect=fixed;fillColor=#eeeeee;strokeColor=#36393d;" parent="1" vertex="1">
                    <mxGeometry x="110" y="20" width="20" height="20" as="geometry"/>
                </mxCell>
                <mxCell id="_EGkRZJ-95pMrmB_p54p-2" value="" style="edgeStyle=none;html=1;fontFamily=Helvetica;fontSize=13;fontColor=none;startSize=0;" parent="1" source="25btfBUaxP0-cFL3U1zC-25" target="_EGkRZJ-95pMrmB_p54p-1" edge="1">
                    <mxGeometry relative="1" as="geometry"/>
                </mxCell>
                <mxCell id="25btfBUaxP0-cFL3U1zC-25" value="" style="whiteSpace=wrap;html=1;aspect=fixed;fillColor=#eeeeee;strokeColor=#36393d;" parent="1" vertex="1">
                    <mxGeometry x="210" y="20" width="20" height="20" as="geometry"/>
                </mxCell>
                <mxCell id="IeaVs2So3-fTcIHNb58L-2" value="" style="edgeStyle=none;html=1;fontFamily=Helvetica;fontSize=13;fontColor=#000000;startSize=0;" parent="1" source="25btfBUaxP0-cFL3U1zC-26" target="IeaVs2So3-fTcIHNb58L-1" edge="1">
                    <mxGeometry relative="1" as="geometry"/>
                </mxCell>
                <mxCell id="25btfBUaxP0-cFL3U1zC-26" value="" style="whiteSpace=wrap;html=1;aspect=fixed;fillColor=#eeeeee;strokeColor=#36393d;" parent="1" vertex="1">
                    <mxGeometry x="310" y="20" width="20" height="20" as="geometry"/>
                </mxCell>
                <mxCell id="25btfBUaxP0-cFL3U1zC-27" value="&lt;font color=&quot;#000000&quot; size=&quot;1&quot;&gt;&lt;b style=&quot;font-size: 19px&quot;&gt;Nhân Viên&lt;/b&gt;&lt;/font&gt;" style="text;html=1;strokeColor=none;fillColor=none;align=center;verticalAlign=middle;whiteSpace=wrap;rounded=0;strokeWidth=4;" parent="1" vertex="1">
                    <mxGeometry x="30" y="70" width="130" height="30" as="geometry"/>
                </mxCell>
                <mxCell id="25btfBUaxP0-cFL3U1zC-28" value="&lt;font color=&quot;#000000&quot;&gt;Số cột trình bày&lt;/font&gt;" style="strokeWidth=1;shadow=0;dashed=0;align=center;html=1;shape=mxgraph.mockup.forms.comboBox;strokeColor=#005700;fillColor=#008a00;align=left;fillColor2=#aaddff;mainText=;fontColor=#ffffff;fontSize=17;spacingLeft=3;" parent="1" vertex="1">
                    <mxGeometry x="50" y="120" width="250" height="30" as="geometry"/>
                </mxCell>
                <mxCell id="25btfBUaxP0-cFL3U1zC-30" value="&lt;font style=&quot;font-size: 17px&quot;&gt;Sắp xếp theo theo tên&lt;/font&gt;" style="rounded=0;whiteSpace=wrap;html=1;labelBackgroundColor=none;fontSize=19;fontColor=#ffffff;strokeWidth=5;fillColor=#008a00;strokeColor=none;" parent="1" vertex="1">
                    <mxGeometry x="310" y="120" width="240" height="30" as="geometry"/>
                </mxCell>
                <mxCell id="25btfBUaxP0-cFL3U1zC-31" value="&lt;span style=&quot;font-size: 17px&quot;&gt;Tìm kiếm nhân viên&lt;/span&gt;" style="rounded=0;whiteSpace=wrap;html=1;labelBackgroundColor=none;fontSize=19;fontColor=#ffffff;strokeWidth=4;fillColor=#008a00;strokeColor=none;" parent="1" vertex="1">
                    <mxGeometry x="560" y="120" width="240" height="30" as="geometry"/>
                </mxCell>
                <mxCell id="co_zL0Y3y6UBtKUTGLQG-3" value="" style="edgeStyle=none;html=1;fontFamily=Helvetica;fontSize=13;fontColor=none;startSize=0;" parent="1" source="25btfBUaxP0-cFL3U1zC-48" target="co_zL0Y3y6UBtKUTGLQG-2" edge="1">
                    <mxGeometry relative="1" as="geometry"/>
                </mxCell>
                <mxCell id="25btfBUaxP0-cFL3U1zC-48" value="" style="verticalLabelPosition=bottom;shadow=0;dashed=0;align=center;html=1;verticalAlign=top;strokeWidth=1;shape=mxgraph.mockup.containers.userMale;strokeColor=#666666;strokeColor2=#008cff;labelBackgroundColor=none;fontSize=17;fontColor=#000000;fillColor=#FFFFFF;" parent="1" vertex="1">
                    <mxGeometry x="50" y="230" width="100" height="130" as="geometry"/>
                </mxCell>
                <mxCell id="25btfBUaxP0-cFL3U1zC-52" value="" style="verticalLabelPosition=bottom;shadow=0;dashed=0;align=center;html=1;verticalAlign=top;strokeWidth=1;shape=mxgraph.mockup.containers.userMale;strokeColor=#666666;strokeColor2=#008cff;labelBackgroundColor=none;fontSize=17;fontColor=#000000;fillColor=#FFFFFF;" parent="1" vertex="1">
                    <mxGeometry x="50" y="440" width="100" height="120" as="geometry"/>
                </mxCell>
                <mxCell id="25btfBUaxP0-cFL3U1zC-53" value="" style="verticalLabelPosition=bottom;shadow=0;dashed=0;align=center;html=1;verticalAlign=top;strokeWidth=1;shape=mxgraph.mockup.containers.userMale;strokeColor=#666666;strokeColor2=#008cff;labelBackgroundColor=none;fontSize=17;fontColor=#000000;fillColor=#FFFFFF;" parent="1" vertex="1">
                    <mxGeometry x="50" y="650" width="100" height="120" as="geometry"/>
                </mxCell>
                <mxCell id="25btfBUaxP0-cFL3U1zC-54" value="" style="verticalLabelPosition=bottom;shadow=0;dashed=0;align=center;html=1;verticalAlign=top;strokeWidth=1;shape=mxgraph.mockup.containers.userMale;strokeColor=#666666;strokeColor2=#008cff;labelBackgroundColor=none;fontSize=17;fontColor=#000000;fillColor=#FFFFFF;" parent="1" vertex="1">
                    <mxGeometry x="180" y="230" width="100" height="130" as="geometry"/>
                </mxCell>
                <mxCell id="25btfBUaxP0-cFL3U1zC-55" value="" style="verticalLabelPosition=bottom;shadow=0;dashed=0;align=center;html=1;verticalAlign=top;strokeWidth=1;shape=mxgraph.mockup.containers.userMale;strokeColor=#666666;strokeColor2=#008cff;labelBackgroundColor=none;fontSize=17;fontColor=#000000;fillColor=#FFFFFF;" parent="1" vertex="1">
                    <mxGeometry x="310" y="230" width="100" height="130" as="geometry"/>
                </mxCell>
                <mxCell id="25btfBUaxP0-cFL3U1zC-56" value="" style="verticalLabelPosition=bottom;shadow=0;dashed=0;align=center;html=1;verticalAlign=top;strokeWidth=1;shape=mxgraph.mockup.containers.userMale;strokeColor=#666666;strokeColor2=#008cff;labelBackgroundColor=none;fontSize=17;fontColor=#000000;fillColor=#FFFFFF;" parent="1" vertex="1">
                    <mxGeometry x="440" y="230" width="100" height="130" as="geometry"/>
                </mxCell>
                <mxCell id="25btfBUaxP0-cFL3U1zC-57" value="" style="verticalLabelPosition=bottom;shadow=0;dashed=0;align=center;html=1;verticalAlign=top;strokeWidth=1;shape=mxgraph.mockup.containers.userMale;strokeColor=#00661F;strokeColor2=#008cff;labelBackgroundColor=none;fontSize=17;fontColor=#000000;fillColor=#FFFFFF;" parent="1" vertex="1">
                    <mxGeometry x="570" y="230" width="100" height="130" as="geometry"/>
                </mxCell>
                <mxCell id="25btfBUaxP0-cFL3U1zC-58" value="" style="verticalLabelPosition=bottom;shadow=0;dashed=0;align=center;html=1;verticalAlign=top;strokeWidth=1;shape=mxgraph.mockup.containers.userMale;strokeColor=#00661F;strokeColor2=#008cff;labelBackgroundColor=none;fontSize=17;fontColor=#000000;fillColor=#FFFFFF;" parent="1" vertex="1">
                    <mxGeometry x="700" y="230" width="100" height="130" as="geometry"/>
                </mxCell>
                <mxCell id="25btfBUaxP0-cFL3U1zC-61" value="Nguyễn Thi" style="rounded=0;whiteSpace=wrap;html=1;labelBackgroundColor=none;fontSize=17;fontColor=#000000;strokeColor=#33FF33;strokeWidth=1;fillColor=#FFFFFF;" parent="1" vertex="1">
                    <mxGeometry x="50" y="360" width="100" height="40" as="geometry"/>
                </mxCell>
                <mxCell id="25btfBUaxP0-cFL3U1zC-62" value="Nguyễn Văn" style="rounded=0;whiteSpace=wrap;html=1;labelBackgroundColor=none;fontSize=17;fontColor=#000000;strokeColor=#33FF33;strokeWidth=1;fillColor=#FFFFFF;" parent="1" vertex="1">
                    <mxGeometry x="180" y="360" width="100" height="40" as="geometry"/>
                </mxCell>
                <mxCell id="25btfBUaxP0-cFL3U1zC-67" value="" style="verticalLabelPosition=bottom;shadow=0;dashed=0;align=center;html=1;verticalAlign=top;strokeWidth=1;shape=mxgraph.mockup.containers.userMale;strokeColor=#666666;strokeColor2=#008cff;labelBackgroundColor=none;fontSize=17;fontColor=#000000;fillColor=#FFFFFF;" parent="1" vertex="1">
                    <mxGeometry x="180" y="440" width="100" height="120" as="geometry"/>
                </mxCell>
                <mxCell id="25btfBUaxP0-cFL3U1zC-69" value="" style="verticalLabelPosition=bottom;shadow=0;dashed=0;align=center;html=1;verticalAlign=top;strokeWidth=1;shape=mxgraph.mockup.containers.userMale;strokeColor=#666666;strokeColor2=#008cff;labelBackgroundColor=none;fontSize=17;fontColor=#000000;fillColor=#FFFFFF;" parent="1" vertex="1">
                    <mxGeometry x="310" y="440" width="100" height="120" as="geometry"/>
                </mxCell>
                <mxCell id="25btfBUaxP0-cFL3U1zC-71" value="" style="verticalLabelPosition=bottom;shadow=0;dashed=0;align=center;html=1;verticalAlign=top;strokeWidth=1;shape=mxgraph.mockup.containers.userMale;strokeColor=#666666;strokeColor2=#008cff;labelBackgroundColor=none;fontSize=17;fontColor=#000000;fillColor=#FFFFFF;" parent="1" vertex="1">
                    <mxGeometry x="440" y="440" width="100" height="120" as="geometry"/>
                </mxCell>
                <mxCell id="25btfBUaxP0-cFL3U1zC-73" value="" style="verticalLabelPosition=bottom;shadow=0;dashed=0;align=center;html=1;verticalAlign=top;strokeWidth=1;shape=mxgraph.mockup.containers.userMale;strokeColor=#666666;strokeColor2=#008cff;labelBackgroundColor=none;fontSize=17;fontColor=#000000;fillColor=#FFFFFF;" parent="1" vertex="1">
                    <mxGeometry x="570" y="440" width="100" height="120" as="geometry"/>
                </mxCell>
                <mxCell id="25btfBUaxP0-cFL3U1zC-75" value="" style="verticalLabelPosition=bottom;shadow=0;dashed=0;align=center;html=1;verticalAlign=top;strokeWidth=1;shape=mxgraph.mockup.containers.userMale;strokeColor=#666666;strokeColor2=#008cff;labelBackgroundColor=none;fontSize=17;fontColor=#000000;fillColor=#FFFFFF;" parent="1" vertex="1">
                    <mxGeometry x="700" y="440" width="100" height="120" as="geometry"/>
                </mxCell>
                <mxCell id="25btfBUaxP0-cFL3U1zC-78" value="" style="verticalLabelPosition=bottom;shadow=0;dashed=0;align=center;html=1;verticalAlign=top;strokeWidth=1;shape=mxgraph.mockup.containers.userMale;strokeColor=#666666;strokeColor2=#008cff;labelBackgroundColor=none;fontSize=17;fontColor=#000000;fillColor=#FFFFFF;" parent="1" vertex="1">
                    <mxGeometry x="180" y="650" width="100" height="120" as="geometry"/>
                </mxCell>
                <mxCell id="25btfBUaxP0-cFL3U1zC-80" value="" style="verticalLabelPosition=bottom;shadow=0;dashed=0;align=center;html=1;verticalAlign=top;strokeWidth=1;shape=mxgraph.mockup.containers.userMale;strokeColor=#666666;strokeColor2=#008cff;labelBackgroundColor=none;fontSize=17;fontColor=#000000;fillColor=#FFFFFF;" parent="1" vertex="1">
                    <mxGeometry x="310" y="650" width="100" height="120" as="geometry"/>
                </mxCell>
                <mxCell id="25btfBUaxP0-cFL3U1zC-82" value="" style="verticalLabelPosition=bottom;shadow=0;dashed=0;align=center;html=1;verticalAlign=top;strokeWidth=1;shape=mxgraph.mockup.containers.userMale;strokeColor=#666666;strokeColor2=#008cff;labelBackgroundColor=none;fontSize=17;fontColor=#000000;fillColor=#FFFFFF;" parent="1" vertex="1">
                    <mxGeometry x="440" y="650" width="100" height="120" as="geometry"/>
                </mxCell>
                <mxCell id="25btfBUaxP0-cFL3U1zC-89" value="Nguyễn Văn" style="rounded=0;whiteSpace=wrap;html=1;labelBackgroundColor=none;fontSize=17;fontColor=#000000;strokeColor=#33FF33;strokeWidth=1;fillColor=#FFFFFF;" parent="1" vertex="1">
                    <mxGeometry x="310" y="360" width="100" height="40" as="geometry"/>
                </mxCell>
                <mxCell id="25btfBUaxP0-cFL3U1zC-90" value="Nguyễn Thi" style="rounded=0;whiteSpace=wrap;html=1;labelBackgroundColor=none;fontSize=17;fontColor=#000000;strokeColor=#33FF33;strokeWidth=1;fillColor=#FFFFFF;" parent="1" vertex="1">
                    <mxGeometry x="440" y="360" width="100" height="40" as="geometry"/>
                </mxCell>
                <mxCell id="25btfBUaxP0-cFL3U1zC-91" value="Nguyễn Thi" style="rounded=0;whiteSpace=wrap;html=1;labelBackgroundColor=none;fontSize=17;fontColor=#000000;strokeColor=#33FF33;strokeWidth=1;fillColor=#FFFFFF;" parent="1" vertex="1">
                    <mxGeometry x="570" y="360" width="100" height="40" as="geometry"/>
                </mxCell>
                <mxCell id="25btfBUaxP0-cFL3U1zC-92" value="Nguyễn Thi" style="rounded=0;whiteSpace=wrap;html=1;labelBackgroundColor=none;fontSize=17;fontColor=#000000;strokeColor=#33FF33;strokeWidth=1;fillColor=#FFFFFF;" parent="1" vertex="1">
                    <mxGeometry x="700" y="360" width="100" height="40" as="geometry"/>
                </mxCell>
                <mxCell id="25btfBUaxP0-cFL3U1zC-93" value="Nguyễn Văn" style="rounded=0;whiteSpace=wrap;html=1;labelBackgroundColor=none;fontSize=17;fontColor=#000000;strokeColor=#33FF33;strokeWidth=1;fillColor=#FFFFFF;" parent="1" vertex="1">
                    <mxGeometry x="50" y="560" width="100" height="40" as="geometry"/>
                </mxCell>
                <mxCell id="25btfBUaxP0-cFL3U1zC-94" value="Nguyễn Thi" style="rounded=0;whiteSpace=wrap;html=1;labelBackgroundColor=none;fontSize=17;fontColor=#000000;strokeColor=#33FF33;strokeWidth=1;fillColor=#FFFFFF;" parent="1" vertex="1">
                    <mxGeometry x="180" y="560" width="100" height="40" as="geometry"/>
                </mxCell>
                <mxCell id="25btfBUaxP0-cFL3U1zC-95" value="Nguyễn Thi" style="rounded=0;whiteSpace=wrap;html=1;labelBackgroundColor=none;fontSize=17;fontColor=#000000;strokeColor=#33FF33;strokeWidth=1;fillColor=#FFFFFF;" parent="1" vertex="1">
                    <mxGeometry x="310" y="560" width="100" height="40" as="geometry"/>
                </mxCell>
                <mxCell id="25btfBUaxP0-cFL3U1zC-96" value="Nguyễn Thi" style="rounded=0;whiteSpace=wrap;html=1;labelBackgroundColor=none;fontSize=17;fontColor=#000000;strokeColor=#33FF33;strokeWidth=1;fillColor=#FFFFFF;" parent="1" vertex="1">
                    <mxGeometry x="440" y="560" width="100" height="40" as="geometry"/>
                </mxCell>
                <mxCell id="25btfBUaxP0-cFL3U1zC-97" value="Nguyễn Văn" style="rounded=0;whiteSpace=wrap;html=1;labelBackgroundColor=none;fontSize=17;fontColor=#000000;strokeColor=#33FF33;strokeWidth=1;fillColor=#FFFFFF;" parent="1" vertex="1">
                    <mxGeometry x="570" y="560" width="100" height="40" as="geometry"/>
                </mxCell>
                <mxCell id="25btfBUaxP0-cFL3U1zC-98" value="Nguyễn Văn" style="rounded=0;whiteSpace=wrap;html=1;labelBackgroundColor=none;fontSize=17;fontColor=#000000;strokeColor=#33FF33;strokeWidth=1;fillColor=#FFFFFF;" parent="1" vertex="1">
                    <mxGeometry x="700" y="560" width="100" height="40" as="geometry"/>
                </mxCell>
                <mxCell id="25btfBUaxP0-cFL3U1zC-99" value="Nguyễn Văn" style="rounded=0;whiteSpace=wrap;html=1;labelBackgroundColor=none;fontSize=17;fontColor=#000000;strokeColor=#33FF33;strokeWidth=1;fillColor=#FFFFFF;" parent="1" vertex="1">
                    <mxGeometry x="50" y="770" width="100" height="40" as="geometry"/>
                </mxCell>
                <mxCell id="25btfBUaxP0-cFL3U1zC-100" value="Nguyễn Thi" style="rounded=0;whiteSpace=wrap;html=1;labelBackgroundColor=none;fontSize=17;fontColor=#000000;strokeColor=#33FF33;strokeWidth=1;fillColor=#FFFFFF;" parent="1" vertex="1">
                    <mxGeometry x="180" y="770" width="100" height="40" as="geometry"/>
                </mxCell>
                <mxCell id="25btfBUaxP0-cFL3U1zC-101" value="Nguyễn Thi" style="rounded=0;whiteSpace=wrap;html=1;labelBackgroundColor=none;fontSize=17;fontColor=#000000;strokeColor=#33FF33;strokeWidth=1;fillColor=#FFFFFF;" parent="1" vertex="1">
                    <mxGeometry x="310" y="770" width="100" height="40" as="geometry"/>
                </mxCell>
                <mxCell id="25btfBUaxP0-cFL3U1zC-102" value="Nguyễn Văn" style="rounded=0;whiteSpace=wrap;html=1;labelBackgroundColor=none;fontSize=17;fontColor=#000000;strokeColor=#33FF33;strokeWidth=1;fillColor=#FFFFFF;" parent="1" vertex="1">
                    <mxGeometry x="440" y="770" width="100" height="40" as="geometry"/>
                </mxCell>
                <mxCell id="5GC4wvfeFfulhEvNUd0w-1" value="&lt;font style=&quot;background-color: rgb(110 , 110 , 110) ; font-size: 12px&quot; color=&quot;#ffffff&quot;&gt;@ Copyright 2018 Ristorante Con Fusion&lt;/font&gt;" style="text;html=1;strokeColor=none;fillColor=none;align=center;verticalAlign=middle;whiteSpace=wrap;rounded=0;labelBackgroundColor=none;fontSize=17;fontColor=#000000;" parent="1" vertex="1">
                    <mxGeometry x="278" y="1060" width="295" height="30" as="geometry"/>
                </mxCell>
                <mxCell id="5GC4wvfeFfulhEvNUd0w-2" value="&lt;h5 style=&quot;box-sizing: border-box ; margin-top: 0px ; margin-bottom: 0.5rem ; font-weight: 500 ; line-height: 1.2 ; font-size: 13px&quot;&gt;&lt;font style=&quot;background-color: rgb(110 , 110 , 110) ; font-size: 13px&quot;&gt;Our Address&lt;/font&gt;&lt;/h5&gt;&lt;address style=&quot;box-sizing: border-box ; margin-bottom: 1rem ; font-style: normal ; line-height: inherit ; font-size: 13px&quot;&gt;&lt;font style=&quot;background-color: rgb(110 , 110 , 110) ; font-size: 13px&quot;&gt;121, Clear Water Bay Road&lt;br style=&quot;box-sizing: border-box&quot;&gt;Clear Water Bay, Kowloon&lt;br style=&quot;box-sizing: border-box&quot;&gt;HONG KONG&lt;br style=&quot;box-sizing: border-box&quot;&gt;&lt;span class=&quot;fa fa-phone fa-lg&quot; style=&quot;box-sizing: border-box ; display: inline-block ; font-stretch: normal ; line-height: 0.75em ; font-family: &amp;#34;fontawesome&amp;#34; ; vertical-align: -15%&quot;&gt;&lt;/span&gt;+852 1234 5678&lt;br style=&quot;box-sizing: border-box&quot;&gt;&lt;span class=&quot;fa fa-fax fa-lg&quot; style=&quot;box-sizing: border-box ; display: inline-block ; font-stretch: normal ; line-height: 0.75em ; font-family: &amp;#34;fontawesome&amp;#34; ; vertical-align: -15%&quot;&gt;&lt;/span&gt;+852 8765 4321&lt;br style=&quot;box-sizing: border-box&quot;&gt;&lt;span class=&quot;fa fa-envelope fa-lg&quot; style=&quot;box-sizing: border-box ; display: inline-block ; font-stretch: normal ; line-height: 0.75em ; font-family: &amp;#34;fontawesome&amp;#34; ; vertical-align: -15%&quot;&gt;&lt;/span&gt;&lt;a href=&quot;mailto:confusion@food.net&quot; style=&quot;box-sizing: border-box ; color: rgb(13 , 110 , 253)&quot;&gt;Thisamazingcompany@food.net&lt;/a&gt;&lt;/font&gt;&lt;/address&gt;" style="text;html=1;strokeColor=none;fillColor=none;align=center;verticalAlign=middle;whiteSpace=wrap;rounded=0;labelBackgroundColor=#6E6E6E;fontSize=14;fontColor=#FFFFFF;" parent="1" vertex="1">
                    <mxGeometry x="60" y="950" width="170" height="120" as="geometry"/>
                </mxCell>
                <mxCell id="5GC4wvfeFfulhEvNUd0w-6" value="&lt;span style=&quot;background-color: rgb(189 , 189 , 189) ; font-size: 21px&quot;&gt;G&lt;/span&gt;" style="shape=ext;double=1;whiteSpace=wrap;html=1;aspect=fixed;labelBackgroundColor=#FFFFFF;fontSize=12;fontColor=#FFFFFF;strokeColor=#039E18;strokeWidth=1;fillColor=#BDBDBD;" parent="1" vertex="1">
                    <mxGeometry x="590" y="980" width="30" height="30" as="geometry"/>
                </mxCell>
                <mxCell id="5GC4wvfeFfulhEvNUd0w-7" value="&lt;span style=&quot;background-color: rgb(189 , 189 , 189) ; font-size: 21px&quot;&gt;F&lt;/span&gt;" style="shape=ext;double=1;whiteSpace=wrap;html=1;aspect=fixed;labelBackgroundColor=#FFFFFF;fontSize=12;fontColor=#FFFFFF;strokeColor=#039E18;strokeWidth=1;fillColor=#BDBDBD;" parent="1" vertex="1">
                    <mxGeometry x="620" y="980" width="30" height="30" as="geometry"/>
                </mxCell>
                <mxCell id="5GC4wvfeFfulhEvNUd0w-8" value="&lt;span style=&quot;background-color: rgb(189 , 189 , 189) ; font-size: 21px&quot;&gt;IN&lt;/span&gt;" style="shape=ext;double=1;whiteSpace=wrap;html=1;aspect=fixed;labelBackgroundColor=#FFFFFF;fontSize=12;fontColor=#FFFFFF;strokeColor=#039E18;strokeWidth=1;fillColor=#BDBDBD;" parent="1" vertex="1">
                    <mxGeometry x="650" y="980" width="30" height="30" as="geometry"/>
                </mxCell>
                <mxCell id="5GC4wvfeFfulhEvNUd0w-10" value="&lt;span style=&quot;font-size: 21px ; background-color: rgb(189 , 189 , 189)&quot;&gt;T&lt;/span&gt;" style="shape=ext;double=1;whiteSpace=wrap;html=1;aspect=fixed;labelBackgroundColor=#FFFFFF;fontSize=12;fontColor=#FFFFFF;strokeColor=#039E18;strokeWidth=1;fillColor=#BDBDBD;" parent="1" vertex="1">
                    <mxGeometry x="680" y="980" width="30" height="30" as="geometry"/>
                </mxCell>
                <mxCell id="5GC4wvfeFfulhEvNUd0w-11" value="&lt;span style=&quot;font-size: 21px ; background-color: rgb(189 , 189 , 189)&quot;&gt;Y&lt;/span&gt;" style="shape=ext;double=1;whiteSpace=wrap;html=1;aspect=fixed;labelBackgroundColor=#FFFFFF;fontSize=12;fontColor=#FFFFFF;strokeColor=#039E18;strokeWidth=1;fillColor=#BDBDBD;" parent="1" vertex="1">
                    <mxGeometry x="710" y="980" width="30" height="30" as="geometry"/>
                </mxCell>
                <mxCell id="co_zL0Y3y6UBtKUTGLQG-2" value="Click vào ảnh&lt;br&gt;chuyển page-5&lt;br&gt;" style="whiteSpace=wrap;html=1;fontSize=17;verticalAlign=top;fillColor=#FFFFFF;strokeColor=#666666;fontColor=#000000;shadow=0;dashed=0;strokeWidth=1;labelBackgroundColor=none;" parent="1" vertex="1">
                    <mxGeometry x="-130" y="270" width="120" height="60" as="geometry"/>
                </mxCell>
                <mxCell id="_EGkRZJ-95pMrmB_p54p-1" value="Click&amp;nbsp; chuyển sang&lt;br&gt;page-4&amp;nbsp;" style="whiteSpace=wrap;html=1;fillColor=#FFFFFF;strokeColor=#36393d;gradientColor=none;fontColor=#000000;" parent="1" vertex="1">
                    <mxGeometry x="160" y="-100" width="120" height="60" as="geometry"/>
                </mxCell>
                <mxCell id="IeaVs2So3-fTcIHNb58L-1" value="Click chuyển sang page-3" style="whiteSpace=wrap;html=1;fillColor=#eeeeee;strokeColor=#36393d;fontColor=#000000;" parent="1" vertex="1">
                    <mxGeometry x="305" y="-100" width="120" height="60" as="geometry"/>
                </mxCell>
            </root>
        </mxGraphModel>
    </diagram>
    <diagram id="fvu8-O4KvfpCrur8SWNQ" name="Page-2">
        <mxGraphModel dx="1634" dy="1703" grid="1" gridSize="10" guides="1" tooltips="1" connect="1" arrows="1" fold="1" page="1" pageScale="1" pageWidth="850" pageHeight="1100" math="0" shadow="0">
            <root>
                <mxCell id="1Nl1pOmwqgQqyaEMZsS8-0"/>
                <mxCell id="1Nl1pOmwqgQqyaEMZsS8-1" parent="1Nl1pOmwqgQqyaEMZsS8-0"/>
                <mxCell id="6oIKaTkfItNY9kuVUniN-0" value="" style="rounded=0;whiteSpace=wrap;html=1;fillColor=#b1ddf0;strokeColor=#039E18;" parent="1Nl1pOmwqgQqyaEMZsS8-1" vertex="1">
                    <mxGeometry width="850" height="1100" as="geometry"/>
                </mxCell>
                <mxCell id="Z4qubXIjDYSQ7bL4NiKO-0" value="" style="rounded=0;whiteSpace=wrap;html=1;fillColor=#647687;fontColor=#ffffff;strokeColor=#314354;" parent="1Nl1pOmwqgQqyaEMZsS8-1" vertex="1">
                    <mxGeometry width="850" height="60" as="geometry"/>
                </mxCell>
                <mxCell id="a9PlvAYwLhvLTFqxhuRQ-0" value="" style="rounded=0;whiteSpace=wrap;html=1;fillColor=#6E6E6E;fontColor=#ffffff;strokeColor=#314354;" parent="1Nl1pOmwqgQqyaEMZsS8-1" vertex="1">
                    <mxGeometry y="920" width="850" height="180" as="geometry"/>
                </mxCell>
                <mxCell id="PnBmrbtEWnE-8KuaONFM-0" value="" style="rounded=0;whiteSpace=wrap;html=1;fillColor=#6E6E6E;fontColor=#ffffff;strokeColor=#314354;" parent="1Nl1pOmwqgQqyaEMZsS8-1" vertex="1">
                    <mxGeometry width="850" height="60" as="geometry"/>
                </mxCell>
                <mxCell id="zMj5N4p_Rn06PCPZ5OiU-0" value="" style="rounded=0;whiteSpace=wrap;html=1;fillColor=#b1ddf0;strokeColor=#039E18;" parent="1Nl1pOmwqgQqyaEMZsS8-1" vertex="1">
                    <mxGeometry width="850" height="1100" as="geometry"/>
                </mxCell>
                <mxCell id="zMj5N4p_Rn06PCPZ5OiU-1" value="" style="rounded=0;whiteSpace=wrap;html=1;fillColor=#6E6E6E;fontColor=#ffffff;strokeColor=#314354;" parent="1Nl1pOmwqgQqyaEMZsS8-1" vertex="1">
                    <mxGeometry width="850" height="60" as="geometry"/>
                </mxCell>
                <mxCell id="zMj5N4p_Rn06PCPZ5OiU-2" value="" style="rounded=0;whiteSpace=wrap;html=1;fillColor=#6E6E6E;fontColor=#ffffff;strokeColor=#314354;" parent="1Nl1pOmwqgQqyaEMZsS8-1" vertex="1">
                    <mxGeometry y="920" width="850" height="180" as="geometry"/>
                </mxCell>
                <mxCell id="zMj5N4p_Rn06PCPZ5OiU-3" value="logo" style="whiteSpace=wrap;html=1;aspect=fixed;" parent="1Nl1pOmwqgQqyaEMZsS8-1" vertex="1">
                    <mxGeometry x="50" y="10" width="40" height="40" as="geometry"/>
                </mxCell>
                <mxCell id="zMj5N4p_Rn06PCPZ5OiU-4" value="Nhân viên" style="text;strokeColor=none;fillColor=none;align=left;verticalAlign=top;spacingLeft=4;spacingRight=4;overflow=hidden;rotatable=0;points=[[0,0.5],[1,0.5]];portConstraint=eastwest;" parent="1Nl1pOmwqgQqyaEMZsS8-1" vertex="1">
                    <mxGeometry x="130" y="17" width="70" height="26" as="geometry"/>
                </mxCell>
                <mxCell id="zMj5N4p_Rn06PCPZ5OiU-5" value="Phòng Ban" style="text;strokeColor=none;fillColor=none;align=left;verticalAlign=top;spacingLeft=4;spacingRight=4;overflow=hidden;rotatable=0;points=[[0,0.5],[1,0.5]];portConstraint=eastwest;" parent="1Nl1pOmwqgQqyaEMZsS8-1" vertex="1">
                    <mxGeometry x="230" y="17" width="80" height="26" as="geometry"/>
                </mxCell>
                <mxCell id="zMj5N4p_Rn06PCPZ5OiU-6" value="Bảng Lương" style="text;strokeColor=none;fillColor=none;align=left;verticalAlign=top;spacingLeft=4;spacingRight=4;overflow=hidden;rotatable=0;points=[[0,0.5],[1,0.5]];portConstraint=eastwest;" parent="1Nl1pOmwqgQqyaEMZsS8-1" vertex="1">
                    <mxGeometry x="330" y="17" width="80" height="26" as="geometry"/>
                </mxCell>
                <mxCell id="zMj5N4p_Rn06PCPZ5OiU-7" value="" style="whiteSpace=wrap;html=1;aspect=fixed;fillColor=#eeeeee;strokeColor=#36393d;" parent="1Nl1pOmwqgQqyaEMZsS8-1" vertex="1">
                    <mxGeometry x="110" y="20" width="20" height="20" as="geometry"/>
                </mxCell>
                <mxCell id="zMj5N4p_Rn06PCPZ5OiU-8" value="" style="whiteSpace=wrap;html=1;aspect=fixed;fillColor=#eeeeee;strokeColor=#36393d;" parent="1Nl1pOmwqgQqyaEMZsS8-1" vertex="1">
                    <mxGeometry x="210" y="20" width="20" height="20" as="geometry"/>
                </mxCell>
                <mxCell id="zMj5N4p_Rn06PCPZ5OiU-9" value="" style="whiteSpace=wrap;html=1;aspect=fixed;fillColor=#eeeeee;strokeColor=#36393d;" parent="1Nl1pOmwqgQqyaEMZsS8-1" vertex="1">
                    <mxGeometry x="310" y="20" width="20" height="20" as="geometry"/>
                </mxCell>
                <mxCell id="zMj5N4p_Rn06PCPZ5OiU-10" value="&lt;font color=&quot;#000000&quot; size=&quot;1&quot;&gt;&lt;b style=&quot;font-size: 19px&quot;&gt;Nhân Viên&lt;/b&gt;&lt;/font&gt;" style="text;html=1;strokeColor=none;fillColor=none;align=center;verticalAlign=middle;whiteSpace=wrap;rounded=0;strokeWidth=4;" parent="1Nl1pOmwqgQqyaEMZsS8-1" vertex="1">
                    <mxGeometry x="30" y="70" width="130" height="30" as="geometry"/>
                </mxCell>
                <mxCell id="74MJ0QA8fpnkul2cVsQP-4" value="" style="edgeStyle=none;html=1;fontFamily=Helvetica;fontSize=13;fontColor=#000000;startSize=0;" parent="1Nl1pOmwqgQqyaEMZsS8-1" source="zMj5N4p_Rn06PCPZ5OiU-12" target="74MJ0QA8fpnkul2cVsQP-3" edge="1">
                    <mxGeometry relative="1" as="geometry"/>
                </mxCell>
                <mxCell id="zMj5N4p_Rn06PCPZ5OiU-12" value="&lt;font style=&quot;font-size: 17px&quot;&gt;Sắp xếp theo theo tên&lt;/font&gt;" style="rounded=0;whiteSpace=wrap;html=1;labelBackgroundColor=none;fontSize=19;fontColor=#ffffff;strokeWidth=5;fillColor=#008a00;strokeColor=none;" parent="1Nl1pOmwqgQqyaEMZsS8-1" vertex="1">
                    <mxGeometry x="300" y="110" width="250" height="30" as="geometry"/>
                </mxCell>
                <mxCell id="74MJ0QA8fpnkul2cVsQP-7" value="" style="edgeStyle=none;html=1;fontFamily=Helvetica;fontSize=13;fontColor=#000000;startSize=0;" parent="1Nl1pOmwqgQqyaEMZsS8-1" source="zMj5N4p_Rn06PCPZ5OiU-13" target="74MJ0QA8fpnkul2cVsQP-6" edge="1">
                    <mxGeometry relative="1" as="geometry"/>
                </mxCell>
                <mxCell id="zMj5N4p_Rn06PCPZ5OiU-13" value="&lt;span style=&quot;font-size: 17px&quot;&gt;Tìm kiếm nhân viên&lt;/span&gt;" style="rounded=0;whiteSpace=wrap;html=1;labelBackgroundColor=none;fontSize=19;fontColor=#ffffff;strokeWidth=4;fillColor=#008a00;strokeColor=none;" parent="1Nl1pOmwqgQqyaEMZsS8-1" vertex="1">
                    <mxGeometry x="560" y="110" width="240" height="30" as="geometry"/>
                </mxCell>
                <mxCell id="zMj5N4p_Rn06PCPZ5OiU-19" value="" style="verticalLabelPosition=bottom;shadow=0;dashed=0;align=center;html=1;verticalAlign=top;strokeWidth=1;shape=mxgraph.mockup.containers.userMale;strokeColor=#666666;strokeColor2=#008cff;labelBackgroundColor=none;fontSize=17;fontColor=#000000;fillColor=#FFFFFF;" parent="1Nl1pOmwqgQqyaEMZsS8-1" vertex="1">
                    <mxGeometry x="640" y="170" width="160" height="130" as="geometry"/>
                </mxCell>
                <mxCell id="zMj5N4p_Rn06PCPZ5OiU-33" value="Nguyễn Thi" style="rounded=0;whiteSpace=wrap;html=1;labelBackgroundColor=none;fontSize=17;fontColor=#000000;strokeColor=#33FF33;strokeWidth=1;fillColor=#FFFFFF;" parent="1Nl1pOmwqgQqyaEMZsS8-1" vertex="1">
                    <mxGeometry x="640" y="300" width="160" height="30" as="geometry"/>
                </mxCell>
                <mxCell id="zMj5N4p_Rn06PCPZ5OiU-46" value="&lt;font style=&quot;background-color: rgb(110 , 110 , 110) ; font-size: 12px&quot; color=&quot;#ffffff&quot;&gt;@ Copyright 2018 Ristorante Con Fusion&lt;/font&gt;" style="text;html=1;strokeColor=none;fillColor=none;align=center;verticalAlign=middle;whiteSpace=wrap;rounded=0;labelBackgroundColor=none;fontSize=17;fontColor=#000000;" parent="1Nl1pOmwqgQqyaEMZsS8-1" vertex="1">
                    <mxGeometry x="278" y="1060" width="295" height="30" as="geometry"/>
                </mxCell>
                <mxCell id="zMj5N4p_Rn06PCPZ5OiU-47" value="&lt;h5 style=&quot;box-sizing: border-box ; margin-top: 0px ; margin-bottom: 0.5rem ; font-weight: 500 ; line-height: 1.2 ; font-size: 13px&quot;&gt;&lt;font style=&quot;background-color: rgb(110 , 110 , 110) ; font-size: 13px&quot;&gt;Our Address&lt;/font&gt;&lt;/h5&gt;&lt;address style=&quot;box-sizing: border-box ; margin-bottom: 1rem ; font-style: normal ; line-height: inherit ; font-size: 13px&quot;&gt;&lt;font style=&quot;background-color: rgb(110 , 110 , 110) ; font-size: 13px&quot;&gt;121, Clear Water Bay Road&lt;br style=&quot;box-sizing: border-box&quot;&gt;Clear Water Bay, Kowloon&lt;br style=&quot;box-sizing: border-box&quot;&gt;HONG KONG&lt;br style=&quot;box-sizing: border-box&quot;&gt;&lt;span class=&quot;fa fa-phone fa-lg&quot; style=&quot;box-sizing: border-box ; display: inline-block ; font-stretch: normal ; line-height: 0.75em ; font-family: &amp;quot;fontawesome&amp;quot; ; vertical-align: -15%&quot;&gt;&lt;/span&gt;+852 1234 5678&lt;br style=&quot;box-sizing: border-box&quot;&gt;&lt;span class=&quot;fa fa-fax fa-lg&quot; style=&quot;box-sizing: border-box ; display: inline-block ; font-stretch: normal ; line-height: 0.75em ; font-family: &amp;quot;fontawesome&amp;quot; ; vertical-align: -15%&quot;&gt;&lt;/span&gt;+852 8765 4321&lt;br style=&quot;box-sizing: border-box&quot;&gt;&lt;span class=&quot;fa fa-envelope fa-lg&quot; style=&quot;box-sizing: border-box ; display: inline-block ; font-stretch: normal ; line-height: 0.75em ; font-family: &amp;quot;fontawesome&amp;quot; ; vertical-align: -15%&quot;&gt;&lt;/span&gt;&lt;a href=&quot;mailto:confusion@food.net&quot; style=&quot;box-sizing: border-box ; color: rgb(13 , 110 , 253)&quot;&gt;Thisamazingcompany@food.net&lt;/a&gt;&lt;/font&gt;&lt;/address&gt;" style="text;html=1;strokeColor=none;fillColor=none;align=center;verticalAlign=middle;whiteSpace=wrap;rounded=0;labelBackgroundColor=#6E6E6E;fontSize=14;fontColor=#FFFFFF;" parent="1Nl1pOmwqgQqyaEMZsS8-1" vertex="1">
                    <mxGeometry x="60" y="950" width="170" height="120" as="geometry"/>
                </mxCell>
                <mxCell id="zMj5N4p_Rn06PCPZ5OiU-48" value="&lt;span style=&quot;background-color: rgb(189 , 189 , 189) ; font-size: 21px&quot;&gt;G&lt;/span&gt;" style="shape=ext;double=1;whiteSpace=wrap;html=1;aspect=fixed;labelBackgroundColor=#FFFFFF;fontSize=12;fontColor=#FFFFFF;strokeColor=#039E18;strokeWidth=1;fillColor=#BDBDBD;" parent="1Nl1pOmwqgQqyaEMZsS8-1" vertex="1">
                    <mxGeometry x="590" y="980" width="30" height="30" as="geometry"/>
                </mxCell>
                <mxCell id="zMj5N4p_Rn06PCPZ5OiU-49" value="&lt;span style=&quot;background-color: rgb(189 , 189 , 189) ; font-size: 21px&quot;&gt;F&lt;/span&gt;" style="shape=ext;double=1;whiteSpace=wrap;html=1;aspect=fixed;labelBackgroundColor=#FFFFFF;fontSize=12;fontColor=#FFFFFF;strokeColor=#039E18;strokeWidth=1;fillColor=#BDBDBD;" parent="1Nl1pOmwqgQqyaEMZsS8-1" vertex="1">
                    <mxGeometry x="620" y="980" width="30" height="30" as="geometry"/>
                </mxCell>
                <mxCell id="zMj5N4p_Rn06PCPZ5OiU-50" value="&lt;span style=&quot;background-color: rgb(189 , 189 , 189) ; font-size: 21px&quot;&gt;IN&lt;/span&gt;" style="shape=ext;double=1;whiteSpace=wrap;html=1;aspect=fixed;labelBackgroundColor=#FFFFFF;fontSize=12;fontColor=#FFFFFF;strokeColor=#039E18;strokeWidth=1;fillColor=#BDBDBD;" parent="1Nl1pOmwqgQqyaEMZsS8-1" vertex="1">
                    <mxGeometry x="650" y="980" width="30" height="30" as="geometry"/>
                </mxCell>
                <mxCell id="zMj5N4p_Rn06PCPZ5OiU-51" value="&lt;span style=&quot;font-size: 21px ; background-color: rgb(189 , 189 , 189)&quot;&gt;T&lt;/span&gt;" style="shape=ext;double=1;whiteSpace=wrap;html=1;aspect=fixed;labelBackgroundColor=#FFFFFF;fontSize=12;fontColor=#FFFFFF;strokeColor=#039E18;strokeWidth=1;fillColor=#BDBDBD;" parent="1Nl1pOmwqgQqyaEMZsS8-1" vertex="1">
                    <mxGeometry x="680" y="980" width="30" height="30" as="geometry"/>
                </mxCell>
                <mxCell id="zMj5N4p_Rn06PCPZ5OiU-52" value="&lt;span style=&quot;font-size: 21px ; background-color: rgb(189 , 189 , 189)&quot;&gt;Y&lt;/span&gt;" style="shape=ext;double=1;whiteSpace=wrap;html=1;aspect=fixed;labelBackgroundColor=#FFFFFF;fontSize=12;fontColor=#FFFFFF;strokeColor=#039E18;strokeWidth=1;fillColor=#BDBDBD;" parent="1Nl1pOmwqgQqyaEMZsS8-1" vertex="1">
                    <mxGeometry x="710" y="980" width="30" height="30" as="geometry"/>
                </mxCell>
                <mxCell id="zMj5N4p_Rn06PCPZ5OiU-58" value="" style="verticalLabelPosition=bottom;shadow=0;dashed=0;align=center;html=1;verticalAlign=top;strokeWidth=1;shape=mxgraph.mockup.containers.userMale;strokeColor=#666666;strokeColor2=#008cff;labelBackgroundColor=none;fontSize=17;fontColor=#000000;fillColor=#FFFFFF;" parent="1Nl1pOmwqgQqyaEMZsS8-1" vertex="1">
                    <mxGeometry x="440" y="170" width="160" height="130" as="geometry"/>
                </mxCell>
                <mxCell id="zMj5N4p_Rn06PCPZ5OiU-59" value="Nguyễn Văn" style="rounded=0;whiteSpace=wrap;html=1;labelBackgroundColor=none;fontSize=17;fontColor=#000000;strokeColor=#33FF33;strokeWidth=1;fillColor=#FFFFFF;" parent="1Nl1pOmwqgQqyaEMZsS8-1" vertex="1">
                    <mxGeometry x="440" y="300" width="160" height="30" as="geometry"/>
                </mxCell>
                <mxCell id="zMj5N4p_Rn06PCPZ5OiU-60" value="" style="verticalLabelPosition=bottom;shadow=0;dashed=0;align=center;html=1;verticalAlign=top;strokeWidth=1;shape=mxgraph.mockup.containers.userMale;strokeColor=#666666;strokeColor2=#008cff;labelBackgroundColor=none;fontSize=17;fontColor=#000000;fillColor=#FFFFFF;" parent="1Nl1pOmwqgQqyaEMZsS8-1" vertex="1">
                    <mxGeometry x="50" y="170" width="160" height="130" as="geometry"/>
                </mxCell>
                <mxCell id="zMj5N4p_Rn06PCPZ5OiU-61" value="Nguyễn Thi" style="rounded=0;whiteSpace=wrap;html=1;labelBackgroundColor=none;fontSize=17;fontColor=#000000;strokeColor=#33FF33;strokeWidth=1;fillColor=#FFFFFF;" parent="1Nl1pOmwqgQqyaEMZsS8-1" vertex="1">
                    <mxGeometry x="50" y="300" width="160" height="30" as="geometry"/>
                </mxCell>
                <mxCell id="zMj5N4p_Rn06PCPZ5OiU-62" value="" style="verticalLabelPosition=bottom;shadow=0;dashed=0;align=center;html=1;verticalAlign=top;strokeWidth=1;shape=mxgraph.mockup.containers.userMale;strokeColor=#666666;strokeColor2=#008cff;labelBackgroundColor=none;fontSize=17;fontColor=#000000;fillColor=#FFFFFF;" parent="1Nl1pOmwqgQqyaEMZsS8-1" vertex="1">
                    <mxGeometry x="250" y="170" width="160" height="130" as="geometry"/>
                </mxCell>
                <mxCell id="zMj5N4p_Rn06PCPZ5OiU-125" value="" style="edgeStyle=none;html=1;fontSize=17;fontColor=#FFFFFF;" parent="1Nl1pOmwqgQqyaEMZsS8-1" source="zMj5N4p_Rn06PCPZ5OiU-63" target="zMj5N4p_Rn06PCPZ5OiU-123" edge="1">
                    <mxGeometry relative="1" as="geometry"/>
                </mxCell>
                <mxCell id="zMj5N4p_Rn06PCPZ5OiU-63" value="Nguyễn Văn" style="rounded=0;whiteSpace=wrap;html=1;labelBackgroundColor=none;fontSize=17;fontColor=#000000;strokeColor=#33FF33;strokeWidth=1;fillColor=#FFFFFF;" parent="1Nl1pOmwqgQqyaEMZsS8-1" vertex="1">
                    <mxGeometry x="250" y="300" width="160" height="30" as="geometry"/>
                </mxCell>
                <mxCell id="zMj5N4p_Rn06PCPZ5OiU-31" value="" style="verticalLabelPosition=bottom;shadow=0;dashed=0;align=center;html=1;verticalAlign=top;strokeWidth=1;shape=mxgraph.mockup.containers.userMale;strokeColor=#666666;strokeColor2=#008cff;labelBackgroundColor=none;fontSize=17;fontColor=#000000;fillColor=#FFFFFF;" parent="1Nl1pOmwqgQqyaEMZsS8-1" vertex="1">
                    <mxGeometry x="640.5" y="360" width="160" height="130" as="geometry"/>
                </mxCell>
                <mxCell id="zMj5N4p_Rn06PCPZ5OiU-32" value="Nguyễn Thi" style="rounded=0;whiteSpace=wrap;html=1;labelBackgroundColor=none;fontSize=17;fontColor=#000000;strokeColor=#33FF33;strokeWidth=1;fillColor=#FFFFFF;" parent="1Nl1pOmwqgQqyaEMZsS8-1" vertex="1">
                    <mxGeometry x="640.5" y="490" width="160" height="30" as="geometry"/>
                </mxCell>
                <mxCell id="zMj5N4p_Rn06PCPZ5OiU-34" value="" style="verticalLabelPosition=bottom;shadow=0;dashed=0;align=center;html=1;verticalAlign=top;strokeWidth=1;shape=mxgraph.mockup.containers.userMale;strokeColor=#666666;strokeColor2=#008cff;labelBackgroundColor=none;fontSize=17;fontColor=#000000;fillColor=#FFFFFF;" parent="1Nl1pOmwqgQqyaEMZsS8-1" vertex="1">
                    <mxGeometry x="440.5" y="360" width="160" height="130" as="geometry"/>
                </mxCell>
                <mxCell id="zMj5N4p_Rn06PCPZ5OiU-35" value="Nguyễn Văn" style="rounded=0;whiteSpace=wrap;html=1;labelBackgroundColor=none;fontSize=17;fontColor=#000000;strokeColor=#33FF33;strokeWidth=1;fillColor=#FFFFFF;" parent="1Nl1pOmwqgQqyaEMZsS8-1" vertex="1">
                    <mxGeometry x="440.5" y="490" width="160" height="30" as="geometry"/>
                </mxCell>
                <mxCell id="zMj5N4p_Rn06PCPZ5OiU-36" value="" style="verticalLabelPosition=bottom;shadow=0;dashed=0;align=center;html=1;verticalAlign=top;strokeWidth=1;shape=mxgraph.mockup.containers.userMale;strokeColor=#666666;strokeColor2=#008cff;labelBackgroundColor=none;fontSize=17;fontColor=#000000;fillColor=#FFFFFF;" parent="1Nl1pOmwqgQqyaEMZsS8-1" vertex="1">
                    <mxGeometry x="50.5" y="360" width="160" height="130" as="geometry"/>
                </mxCell>
                <mxCell id="zMj5N4p_Rn06PCPZ5OiU-37" value="Nguyễn Thi" style="rounded=0;whiteSpace=wrap;html=1;labelBackgroundColor=none;fontSize=17;fontColor=#000000;strokeColor=#33FF33;strokeWidth=1;fillColor=#FFFFFF;" parent="1Nl1pOmwqgQqyaEMZsS8-1" vertex="1">
                    <mxGeometry x="50.5" y="490" width="160" height="30" as="geometry"/>
                </mxCell>
                <mxCell id="zMj5N4p_Rn06PCPZ5OiU-38" value="" style="verticalLabelPosition=bottom;shadow=0;dashed=0;align=center;html=1;verticalAlign=top;strokeWidth=1;shape=mxgraph.mockup.containers.userMale;strokeColor=#666666;strokeColor2=#008cff;labelBackgroundColor=none;fontSize=17;fontColor=#000000;fillColor=#FFFFFF;" parent="1Nl1pOmwqgQqyaEMZsS8-1" vertex="1">
                    <mxGeometry x="250.5" y="360" width="160" height="130" as="geometry"/>
                </mxCell>
                <mxCell id="zMj5N4p_Rn06PCPZ5OiU-39" value="Nguyễn Văn" style="rounded=0;whiteSpace=wrap;html=1;labelBackgroundColor=none;fontSize=17;fontColor=#000000;strokeColor=#33FF33;strokeWidth=1;fillColor=#FFFFFF;" parent="1Nl1pOmwqgQqyaEMZsS8-1" vertex="1">
                    <mxGeometry x="250.5" y="490" width="160" height="30" as="geometry"/>
                </mxCell>
                <mxCell id="zMj5N4p_Rn06PCPZ5OiU-40" value="" style="verticalLabelPosition=bottom;shadow=0;dashed=0;align=center;html=1;verticalAlign=top;strokeWidth=1;shape=mxgraph.mockup.containers.userMale;strokeColor=#666666;strokeColor2=#008cff;labelBackgroundColor=none;fontSize=17;fontColor=#000000;fillColor=#FFFFFF;" parent="1Nl1pOmwqgQqyaEMZsS8-1" vertex="1">
                    <mxGeometry x="640.5" y="550" width="160" height="130" as="geometry"/>
                </mxCell>
                <mxCell id="zMj5N4p_Rn06PCPZ5OiU-41" value="Nguyễn Thi" style="rounded=0;whiteSpace=wrap;html=1;labelBackgroundColor=none;fontSize=17;fontColor=#000000;strokeColor=#33FF33;strokeWidth=1;fillColor=#FFFFFF;" parent="1Nl1pOmwqgQqyaEMZsS8-1" vertex="1">
                    <mxGeometry x="640.5" y="680" width="160" height="30" as="geometry"/>
                </mxCell>
                <mxCell id="zMj5N4p_Rn06PCPZ5OiU-42" value="" style="verticalLabelPosition=bottom;shadow=0;dashed=0;align=center;html=1;verticalAlign=top;strokeWidth=1;shape=mxgraph.mockup.containers.userMale;strokeColor=#666666;strokeColor2=#008cff;labelBackgroundColor=none;fontSize=17;fontColor=#000000;fillColor=#FFFFFF;" parent="1Nl1pOmwqgQqyaEMZsS8-1" vertex="1">
                    <mxGeometry x="440.5" y="550" width="160" height="130" as="geometry"/>
                </mxCell>
                <mxCell id="zMj5N4p_Rn06PCPZ5OiU-43" value="Nguyễn Văn" style="rounded=0;whiteSpace=wrap;html=1;labelBackgroundColor=none;fontSize=17;fontColor=#000000;strokeColor=#33FF33;strokeWidth=1;fillColor=#FFFFFF;" parent="1Nl1pOmwqgQqyaEMZsS8-1" vertex="1">
                    <mxGeometry x="440.5" y="680" width="160" height="30" as="geometry"/>
                </mxCell>
                <mxCell id="zMj5N4p_Rn06PCPZ5OiU-44" value="" style="verticalLabelPosition=bottom;shadow=0;dashed=0;align=center;html=1;verticalAlign=top;strokeWidth=1;shape=mxgraph.mockup.containers.userMale;strokeColor=#666666;strokeColor2=#008cff;labelBackgroundColor=none;fontSize=17;fontColor=#000000;fillColor=#FFFFFF;" parent="1Nl1pOmwqgQqyaEMZsS8-1" vertex="1">
                    <mxGeometry x="50.5" y="550" width="160" height="130" as="geometry"/>
                </mxCell>
                <mxCell id="zMj5N4p_Rn06PCPZ5OiU-45" value="Nguyễn Thi" style="rounded=0;whiteSpace=wrap;html=1;labelBackgroundColor=none;fontSize=17;fontColor=#000000;strokeColor=#33FF33;strokeWidth=1;fillColor=#FFFFFF;" parent="1Nl1pOmwqgQqyaEMZsS8-1" vertex="1">
                    <mxGeometry x="50.5" y="680" width="160" height="30" as="geometry"/>
                </mxCell>
                <mxCell id="zMj5N4p_Rn06PCPZ5OiU-53" value="" style="verticalLabelPosition=bottom;shadow=0;dashed=0;align=center;html=1;verticalAlign=top;strokeWidth=1;shape=mxgraph.mockup.containers.userMale;strokeColor=#666666;strokeColor2=#008cff;labelBackgroundColor=none;fontSize=17;fontColor=#000000;fillColor=#FFFFFF;" parent="1Nl1pOmwqgQqyaEMZsS8-1" vertex="1">
                    <mxGeometry x="250.5" y="550" width="160" height="130" as="geometry"/>
                </mxCell>
                <mxCell id="zMj5N4p_Rn06PCPZ5OiU-54" value="Nguyễn Văn" style="rounded=0;whiteSpace=wrap;html=1;labelBackgroundColor=none;fontSize=17;fontColor=#000000;strokeColor=#33FF33;strokeWidth=1;fillColor=#FFFFFF;" parent="1Nl1pOmwqgQqyaEMZsS8-1" vertex="1">
                    <mxGeometry x="250.5" y="680" width="160" height="30" as="geometry"/>
                </mxCell>
                <mxCell id="zMj5N4p_Rn06PCPZ5OiU-55" value="" style="verticalLabelPosition=bottom;shadow=0;dashed=0;align=center;html=1;verticalAlign=top;strokeWidth=1;shape=mxgraph.mockup.containers.userMale;strokeColor=#666666;strokeColor2=#008cff;labelBackgroundColor=none;fontSize=17;fontColor=#000000;fillColor=#FFFFFF;" parent="1Nl1pOmwqgQqyaEMZsS8-1" vertex="1">
                    <mxGeometry x="640" y="740" width="160" height="130" as="geometry"/>
                </mxCell>
                <mxCell id="zMj5N4p_Rn06PCPZ5OiU-56" value="Nguyễn Thi" style="rounded=0;whiteSpace=wrap;html=1;labelBackgroundColor=none;fontSize=17;fontColor=#000000;strokeColor=#33FF33;strokeWidth=1;fillColor=#FFFFFF;" parent="1Nl1pOmwqgQqyaEMZsS8-1" vertex="1">
                    <mxGeometry x="640" y="870" width="160" height="30" as="geometry"/>
                </mxCell>
                <mxCell id="zMj5N4p_Rn06PCPZ5OiU-57" value="" style="verticalLabelPosition=bottom;shadow=0;dashed=0;align=center;html=1;verticalAlign=top;strokeWidth=1;shape=mxgraph.mockup.containers.userMale;strokeColor=#666666;strokeColor2=#008cff;labelBackgroundColor=none;fontSize=17;fontColor=#000000;fillColor=#FFFFFF;" parent="1Nl1pOmwqgQqyaEMZsS8-1" vertex="1">
                    <mxGeometry x="440" y="740" width="160" height="130" as="geometry"/>
                </mxCell>
                <mxCell id="zMj5N4p_Rn06PCPZ5OiU-64" value="Nguyễn Văn" style="rounded=0;whiteSpace=wrap;html=1;labelBackgroundColor=none;fontSize=17;fontColor=#000000;strokeColor=#33FF33;strokeWidth=1;fillColor=#FFFFFF;" parent="1Nl1pOmwqgQqyaEMZsS8-1" vertex="1">
                    <mxGeometry x="440" y="870" width="160" height="30" as="geometry"/>
                </mxCell>
                <mxCell id="zMj5N4p_Rn06PCPZ5OiU-65" value="" style="verticalLabelPosition=bottom;shadow=0;dashed=0;align=center;html=1;verticalAlign=top;strokeWidth=1;shape=mxgraph.mockup.containers.userMale;strokeColor=#666666;strokeColor2=#008cff;labelBackgroundColor=none;fontSize=17;fontColor=#000000;fillColor=#FFFFFF;" parent="1Nl1pOmwqgQqyaEMZsS8-1" vertex="1">
                    <mxGeometry x="50" y="740" width="160" height="130" as="geometry"/>
                </mxCell>
                <mxCell id="zMj5N4p_Rn06PCPZ5OiU-66" value="Nguyễn Thi" style="rounded=0;whiteSpace=wrap;html=1;labelBackgroundColor=none;fontSize=17;fontColor=#000000;strokeColor=#33FF33;strokeWidth=1;fillColor=#FFFFFF;" parent="1Nl1pOmwqgQqyaEMZsS8-1" vertex="1">
                    <mxGeometry x="50" y="870" width="160" height="30" as="geometry"/>
                </mxCell>
                <mxCell id="zMj5N4p_Rn06PCPZ5OiU-67" value="" style="verticalLabelPosition=bottom;shadow=0;dashed=0;align=center;html=1;verticalAlign=top;strokeWidth=1;shape=mxgraph.mockup.containers.userMale;strokeColor=#666666;strokeColor2=#008cff;labelBackgroundColor=none;fontSize=17;fontColor=#000000;fillColor=#FFFFFF;" parent="1Nl1pOmwqgQqyaEMZsS8-1" vertex="1">
                    <mxGeometry x="250" y="740" width="160" height="130" as="geometry"/>
                </mxCell>
                <mxCell id="zMj5N4p_Rn06PCPZ5OiU-68" value="Nguyễn Văn" style="rounded=0;whiteSpace=wrap;html=1;labelBackgroundColor=none;fontSize=17;fontColor=#000000;strokeColor=#33FF33;strokeWidth=1;fillColor=#FFFFFF;" parent="1Nl1pOmwqgQqyaEMZsS8-1" vertex="1">
                    <mxGeometry x="250" y="870" width="160" height="30" as="geometry"/>
                </mxCell>
                <mxCell id="74MJ0QA8fpnkul2cVsQP-1" value="" style="edgeStyle=none;html=1;fontFamily=Helvetica;fontSize=13;fontColor=#000000;startSize=0;" parent="1Nl1pOmwqgQqyaEMZsS8-1" source="zMj5N4p_Rn06PCPZ5OiU-104" target="74MJ0QA8fpnkul2cVsQP-0" edge="1">
                    <mxGeometry relative="1" as="geometry"/>
                </mxCell>
                <mxCell id="zMj5N4p_Rn06PCPZ5OiU-104" value="" style="strokeWidth=1;shadow=0;dashed=0;align=center;html=1;shape=mxgraph.mockup.forms.rrect;rSize=0;strokeColor=#999999;fillColor=#008A00;labelBackgroundColor=#00FF55;fontSize=21;fontColor=#FFFFFF;" parent="1Nl1pOmwqgQqyaEMZsS8-1" vertex="1">
                    <mxGeometry x="50" y="110" width="240" height="190" as="geometry"/>
                </mxCell>
                <mxCell id="zMj5N4p_Rn06PCPZ5OiU-105" value="&lt;font color=&quot;#ffffff&quot;&gt;&lt;span style=&quot;background-color: rgb(0 , 138 , 0)&quot;&gt;Chọn số cột trình bày&lt;/span&gt;&lt;/font&gt;" style="shadow=0;dashed=0;align=center;html=1;shape=mxgraph.mockup.forms.rrect;rSize=;fontColor=#008cff;fontSize=17;fillColor=#008A00;resizeWidth=1;" parent="zMj5N4p_Rn06PCPZ5OiU-104" vertex="1">
                    <mxGeometry width="240" height="30" relative="1" as="geometry"/>
                </mxCell>
                <mxCell id="zMj5N4p_Rn06PCPZ5OiU-107" value="" style="strokeWidth=1;shadow=0;dashed=0;align=center;html=1;shape=mxgraph.mockup.forms.anchor;fontSize=17;fontColor=#666666;align=left;spacingLeft=5;resizeWidth=1;labelBackgroundColor=#00FF55;fillColor=#BDBDBD;" parent="zMj5N4p_Rn06PCPZ5OiU-104" vertex="1">
                    <mxGeometry width="240.00000000000003" height="20" relative="1" as="geometry">
                        <mxPoint y="80" as="offset"/>
                    </mxGeometry>
                </mxCell>
                <mxCell id="zMj5N4p_Rn06PCPZ5OiU-109" value="" style="strokeWidth=1;shadow=0;dashed=0;align=center;html=1;shape=mxgraph.mockup.forms.anchor;fontSize=17;fontColor=#666666;align=left;spacingLeft=5;resizeWidth=1;labelBackgroundColor=#00FF55;fillColor=#BDBDBD;" parent="zMj5N4p_Rn06PCPZ5OiU-104" vertex="1">
                    <mxGeometry width="240.00000000000003" height="20" relative="1" as="geometry">
                        <mxPoint y="120" as="offset"/>
                    </mxGeometry>
                </mxCell>
                <mxCell id="zMj5N4p_Rn06PCPZ5OiU-111" value="&lt;font style=&quot;font-size: 17px&quot;&gt;Một cột&lt;/font&gt;" style="text;html=1;strokeColor=none;fillColor=none;align=center;verticalAlign=middle;whiteSpace=wrap;rounded=0;labelBackgroundColor=#008A00;fontSize=21;fontColor=#FFFFFF;" parent="zMj5N4p_Rn06PCPZ5OiU-104" vertex="1">
                    <mxGeometry x="30" y="28.5" width="180" height="28.5" as="geometry"/>
                </mxCell>
                <mxCell id="zMj5N4p_Rn06PCPZ5OiU-112" value="&lt;font style=&quot;font-size: 17px&quot;&gt;Hai cột&lt;/font&gt;" style="text;html=1;strokeColor=none;fillColor=none;align=center;verticalAlign=middle;whiteSpace=wrap;rounded=0;labelBackgroundColor=#008A00;fontSize=21;fontColor=#FFFFFF;" parent="zMj5N4p_Rn06PCPZ5OiU-104" vertex="1">
                    <mxGeometry x="30" y="57" width="180" height="28.5" as="geometry"/>
                </mxCell>
                <mxCell id="zMj5N4p_Rn06PCPZ5OiU-113" value="&lt;font style=&quot;font-size: 17px&quot;&gt;Ba cột&lt;/font&gt;" style="text;html=1;strokeColor=none;fillColor=none;align=center;verticalAlign=middle;whiteSpace=wrap;rounded=0;labelBackgroundColor=#008A00;fontSize=21;fontColor=#FFFFFF;" parent="zMj5N4p_Rn06PCPZ5OiU-104" vertex="1">
                    <mxGeometry y="93" width="240" height="28.5" as="geometry"/>
                </mxCell>
                <mxCell id="zMj5N4p_Rn06PCPZ5OiU-123" value="&lt;font style=&quot;font-size: 17px&quot;&gt;Sáu cột&lt;/font&gt;" style="text;html=1;strokeColor=none;fillColor=none;align=center;verticalAlign=middle;whiteSpace=wrap;rounded=0;labelBackgroundColor=#008A00;fontSize=21;fontColor=#FFFFFF;" parent="zMj5N4p_Rn06PCPZ5OiU-104" vertex="1">
                    <mxGeometry y="150" width="240" height="28.5" as="geometry"/>
                </mxCell>
                <mxCell id="zMj5N4p_Rn06PCPZ5OiU-114" value="&lt;font style=&quot;font-size: 17px ; background-color: rgb(189 , 189 , 189)&quot;&gt;Bốn cột&lt;/font&gt;" style="text;html=1;strokeColor=none;fillColor=#BDBDBD;align=center;verticalAlign=middle;whiteSpace=wrap;rounded=0;;fontSize=21;fontColor=#FFFFFF;" parent="zMj5N4p_Rn06PCPZ5OiU-104" vertex="1">
                    <mxGeometry y="121.5" width="240" height="30" as="geometry"/>
                </mxCell>
                <mxCell id="74MJ0QA8fpnkul2cVsQP-0" value="Sắp xếp theo số cột được chon" style="whiteSpace=wrap;html=1;fontSize=17;fillColor=#FFFFFF;fontColor=#000000;shadow=0;dashed=0;" parent="1Nl1pOmwqgQqyaEMZsS8-1" vertex="1">
                    <mxGeometry x="-140" y="175" width="120" height="60" as="geometry"/>
                </mxCell>
                <mxCell id="74MJ0QA8fpnkul2cVsQP-3" value="&lt;font style=&quot;font-size: 17px&quot;&gt;Sắp xếp theo tên từ A-Z&lt;/font&gt;" style="whiteSpace=wrap;html=1;fontSize=19;fillColor=#FFFFFF;strokeColor=none;fontColor=#000000;rounded=0;labelBackgroundColor=none;strokeWidth=5;" parent="1Nl1pOmwqgQqyaEMZsS8-1" vertex="1">
                    <mxGeometry x="365.5" y="-80" width="120" height="60" as="geometry"/>
                </mxCell>
                <mxCell id="74MJ0QA8fpnkul2cVsQP-6" value="&lt;font color=&quot;#000000&quot; style=&quot;font-size: 17px&quot;&gt;Tìm kiếm theo tên từ A-Z&lt;/font&gt;" style="whiteSpace=wrap;html=1;fontSize=19;fillColor=#FFFFFF;strokeColor=none;fontColor=#ffffff;rounded=0;labelBackgroundColor=none;strokeWidth=4;" parent="1Nl1pOmwqgQqyaEMZsS8-1" vertex="1">
                    <mxGeometry x="620" y="-80" width="120" height="70" as="geometry"/>
                </mxCell>
            </root>
        </mxGraphModel>
    </diagram>
    <diagram id="3Ol4lK-QEYQXb1vCLLCv" name="Page-3">
        <mxGraphModel dx="2791" dy="978" grid="1" gridSize="10" guides="1" tooltips="1" connect="1" arrows="1" fold="1" page="1" pageScale="1" pageWidth="850" pageHeight="1100" math="0" shadow="0">
            <root>
                <mxCell id="WpOPuQKkbROMgz7XWDDO-0"/>
                <mxCell id="WpOPuQKkbROMgz7XWDDO-1" parent="WpOPuQKkbROMgz7XWDDO-0"/>
                <mxCell id="4wyI7khy2-0on4JGjI19-0" value="" style="rounded=0;whiteSpace=wrap;html=1;fillColor=#b1ddf0;strokeColor=#039E18;" vertex="1" parent="WpOPuQKkbROMgz7XWDDO-1">
                    <mxGeometry width="850" height="1100" as="geometry"/>
                </mxCell>
                <mxCell id="1gurphV99Yuo0jGRE8Qg-0" value="" style="rounded=0;whiteSpace=wrap;html=1;fillColor=#6E6E6E;fontColor=#ffffff;strokeColor=#314354;" vertex="1" parent="WpOPuQKkbROMgz7XWDDO-1">
                    <mxGeometry y="920" width="850" height="180" as="geometry"/>
                </mxCell>
                <mxCell id="n2qT8mlg6qySBceGl6j_-0" value="" style="rounded=0;whiteSpace=wrap;html=1;fillColor=#6E6E6E;fontColor=#ffffff;strokeColor=#314354;" vertex="1" parent="WpOPuQKkbROMgz7XWDDO-1">
                    <mxGeometry width="850" height="60" as="geometry"/>
                </mxCell>
                <mxCell id="jNDKBhmzCaSKFNeemhgF-0" value="logo" style="whiteSpace=wrap;html=1;aspect=fixed;" vertex="1" parent="WpOPuQKkbROMgz7XWDDO-1">
                    <mxGeometry x="50" y="10" width="40" height="40" as="geometry"/>
                </mxCell>
                <mxCell id="jNDKBhmzCaSKFNeemhgF-1" value="Nhân viên" style="text;strokeColor=none;fillColor=none;align=left;verticalAlign=top;spacingLeft=4;spacingRight=4;overflow=hidden;rotatable=0;points=[[0,0.5],[1,0.5]];portConstraint=eastwest;" vertex="1" parent="WpOPuQKkbROMgz7XWDDO-1">
                    <mxGeometry x="130" y="17" width="70" height="26" as="geometry"/>
                </mxCell>
                <mxCell id="jNDKBhmzCaSKFNeemhgF-2" value="Phòng Ban" style="text;strokeColor=none;fillColor=none;align=left;verticalAlign=top;spacingLeft=4;spacingRight=4;overflow=hidden;rotatable=0;points=[[0,0.5],[1,0.5]];portConstraint=eastwest;" vertex="1" parent="WpOPuQKkbROMgz7XWDDO-1">
                    <mxGeometry x="230" y="17" width="80" height="26" as="geometry"/>
                </mxCell>
                <mxCell id="jNDKBhmzCaSKFNeemhgF-3" value="Bảng Lương" style="text;strokeColor=none;fillColor=none;align=left;verticalAlign=top;spacingLeft=4;spacingRight=4;overflow=hidden;rotatable=0;points=[[0,0.5],[1,0.5]];portConstraint=eastwest;" vertex="1" parent="WpOPuQKkbROMgz7XWDDO-1">
                    <mxGeometry x="330" y="17" width="80" height="26" as="geometry"/>
                </mxCell>
                <mxCell id="jNDKBhmzCaSKFNeemhgF-4" value="" style="whiteSpace=wrap;html=1;aspect=fixed;fillColor=#eeeeee;strokeColor=#36393d;" vertex="1" parent="WpOPuQKkbROMgz7XWDDO-1">
                    <mxGeometry x="110" y="20" width="20" height="20" as="geometry"/>
                </mxCell>
                <mxCell id="jNDKBhmzCaSKFNeemhgF-5" value="" style="whiteSpace=wrap;html=1;aspect=fixed;fillColor=#eeeeee;strokeColor=#36393d;" vertex="1" parent="WpOPuQKkbROMgz7XWDDO-1">
                    <mxGeometry x="210" y="20" width="20" height="20" as="geometry"/>
                </mxCell>
                <mxCell id="jNDKBhmzCaSKFNeemhgF-6" value="" style="whiteSpace=wrap;html=1;aspect=fixed;fillColor=#eeeeee;strokeColor=#36393d;" vertex="1" parent="WpOPuQKkbROMgz7XWDDO-1">
                    <mxGeometry x="310" y="20" width="20" height="20" as="geometry"/>
                </mxCell>
                <mxCell id="etFZlFUJOmSIMDE1SJl7-1" value="" style="edgeStyle=none;html=1;fontFamily=Helvetica;fontSize=13;fontColor=#000000;startSize=0;" edge="1" parent="WpOPuQKkbROMgz7XWDDO-1" source="jNDKBhmzCaSKFNeemhgF-7" target="etFZlFUJOmSIMDE1SJl7-0">
                    <mxGeometry relative="1" as="geometry"/>
                </mxCell>
                <mxCell id="jNDKBhmzCaSKFNeemhgF-7" value="&lt;span style=&quot;font-size: 18px&quot;&gt;&lt;font color=&quot;#38afff&quot;&gt;Nhân viên&lt;/font&gt;&lt;font color=&quot;#000000&quot;&gt; / Lương&lt;/font&gt;&lt;/span&gt;" style="text;html=1;strokeColor=none;fillColor=none;align=center;verticalAlign=middle;whiteSpace=wrap;rounded=0;strokeWidth=4;" vertex="1" parent="WpOPuQKkbROMgz7XWDDO-1">
                    <mxGeometry x="40" y="80" width="170" height="20" as="geometry"/>
                </mxCell>
                <mxCell id="jNDKBhmzCaSKFNeemhgF-9" value="&lt;span style=&quot;font-size: 17px&quot;&gt;Sắp xếp hệ số lương&lt;/span&gt;" style="rounded=0;whiteSpace=wrap;html=1;labelBackgroundColor=none;fontSize=19;fontColor=#ffffff;strokeWidth=4;fillColor=#008a00;strokeColor=none;" vertex="1" parent="WpOPuQKkbROMgz7XWDDO-1">
                    <mxGeometry x="50" y="130" width="240" height="40" as="geometry"/>
                </mxCell>
                <mxCell id="jNDKBhmzCaSKFNeemhgF-12" value="&lt;font style=&quot;background-color: rgb(110 , 110 , 110) ; font-size: 12px&quot; color=&quot;#ffffff&quot;&gt;@ Copyright 2018 Ristorante Con Fusion&lt;/font&gt;" style="text;html=1;strokeColor=none;fillColor=none;align=center;verticalAlign=middle;whiteSpace=wrap;rounded=0;labelBackgroundColor=none;fontSize=17;fontColor=#000000;" vertex="1" parent="WpOPuQKkbROMgz7XWDDO-1">
                    <mxGeometry x="278" y="1060" width="295" height="30" as="geometry"/>
                </mxCell>
                <mxCell id="jNDKBhmzCaSKFNeemhgF-13" value="&lt;h5 style=&quot;box-sizing: border-box ; margin-top: 0px ; margin-bottom: 0.5rem ; font-weight: 500 ; line-height: 1.2 ; font-size: 13px&quot;&gt;&lt;font style=&quot;background-color: rgb(110 , 110 , 110) ; font-size: 13px&quot;&gt;Our Address&lt;/font&gt;&lt;/h5&gt;&lt;address style=&quot;box-sizing: border-box ; margin-bottom: 1rem ; font-style: normal ; line-height: inherit ; font-size: 13px&quot;&gt;&lt;font style=&quot;background-color: rgb(110 , 110 , 110) ; font-size: 13px&quot;&gt;121, Clear Water Bay Road&lt;br style=&quot;box-sizing: border-box&quot;&gt;Clear Water Bay, Kowloon&lt;br style=&quot;box-sizing: border-box&quot;&gt;HONG KONG&lt;br style=&quot;box-sizing: border-box&quot;&gt;&lt;span class=&quot;fa fa-phone fa-lg&quot; style=&quot;box-sizing: border-box ; display: inline-block ; font-stretch: normal ; line-height: 0.75em ; font-family: &amp;quot;fontawesome&amp;quot; ; vertical-align: -15%&quot;&gt;&lt;/span&gt;+852 1234 5678&lt;br style=&quot;box-sizing: border-box&quot;&gt;&lt;span class=&quot;fa fa-fax fa-lg&quot; style=&quot;box-sizing: border-box ; display: inline-block ; font-stretch: normal ; line-height: 0.75em ; font-family: &amp;quot;fontawesome&amp;quot; ; vertical-align: -15%&quot;&gt;&lt;/span&gt;+852 8765 4321&lt;br style=&quot;box-sizing: border-box&quot;&gt;&lt;span class=&quot;fa fa-envelope fa-lg&quot; style=&quot;box-sizing: border-box ; display: inline-block ; font-stretch: normal ; line-height: 0.75em ; font-family: &amp;quot;fontawesome&amp;quot; ; vertical-align: -15%&quot;&gt;&lt;/span&gt;&lt;a href=&quot;mailto:confusion@food.net&quot; style=&quot;box-sizing: border-box ; color: rgb(13 , 110 , 253)&quot;&gt;Thisamazingcompany@food.net&lt;/a&gt;&lt;/font&gt;&lt;/address&gt;" style="text;html=1;strokeColor=none;fillColor=none;align=center;verticalAlign=middle;whiteSpace=wrap;rounded=0;labelBackgroundColor=#6E6E6E;fontSize=14;fontColor=#FFFFFF;" vertex="1" parent="WpOPuQKkbROMgz7XWDDO-1">
                    <mxGeometry x="60" y="950" width="170" height="120" as="geometry"/>
                </mxCell>
                <mxCell id="jNDKBhmzCaSKFNeemhgF-14" value="&lt;span style=&quot;background-color: rgb(189 , 189 , 189) ; font-size: 21px&quot;&gt;G&lt;/span&gt;" style="shape=ext;double=1;whiteSpace=wrap;html=1;aspect=fixed;labelBackgroundColor=#FFFFFF;fontSize=12;fontColor=#FFFFFF;strokeColor=#039E18;strokeWidth=1;fillColor=#BDBDBD;" vertex="1" parent="WpOPuQKkbROMgz7XWDDO-1">
                    <mxGeometry x="590" y="980" width="30" height="30" as="geometry"/>
                </mxCell>
                <mxCell id="jNDKBhmzCaSKFNeemhgF-15" value="&lt;span style=&quot;background-color: rgb(189 , 189 , 189) ; font-size: 21px&quot;&gt;F&lt;/span&gt;" style="shape=ext;double=1;whiteSpace=wrap;html=1;aspect=fixed;labelBackgroundColor=#FFFFFF;fontSize=12;fontColor=#FFFFFF;strokeColor=#039E18;strokeWidth=1;fillColor=#BDBDBD;" vertex="1" parent="WpOPuQKkbROMgz7XWDDO-1">
                    <mxGeometry x="620" y="980" width="30" height="30" as="geometry"/>
                </mxCell>
                <mxCell id="jNDKBhmzCaSKFNeemhgF-16" value="&lt;span style=&quot;background-color: rgb(189 , 189 , 189) ; font-size: 21px&quot;&gt;IN&lt;/span&gt;" style="shape=ext;double=1;whiteSpace=wrap;html=1;aspect=fixed;labelBackgroundColor=#FFFFFF;fontSize=12;fontColor=#FFFFFF;strokeColor=#039E18;strokeWidth=1;fillColor=#BDBDBD;" vertex="1" parent="WpOPuQKkbROMgz7XWDDO-1">
                    <mxGeometry x="650" y="980" width="30" height="30" as="geometry"/>
                </mxCell>
                <mxCell id="jNDKBhmzCaSKFNeemhgF-17" value="&lt;span style=&quot;font-size: 21px ; background-color: rgb(189 , 189 , 189)&quot;&gt;T&lt;/span&gt;" style="shape=ext;double=1;whiteSpace=wrap;html=1;aspect=fixed;labelBackgroundColor=#FFFFFF;fontSize=12;fontColor=#FFFFFF;strokeColor=#039E18;strokeWidth=1;fillColor=#BDBDBD;" vertex="1" parent="WpOPuQKkbROMgz7XWDDO-1">
                    <mxGeometry x="680" y="980" width="30" height="30" as="geometry"/>
                </mxCell>
                <mxCell id="jNDKBhmzCaSKFNeemhgF-18" value="&lt;span style=&quot;font-size: 21px ; background-color: rgb(189 , 189 , 189)&quot;&gt;Y&lt;/span&gt;" style="shape=ext;double=1;whiteSpace=wrap;html=1;aspect=fixed;labelBackgroundColor=#FFFFFF;fontSize=12;fontColor=#FFFFFF;strokeColor=#039E18;strokeWidth=1;fillColor=#BDBDBD;" vertex="1" parent="WpOPuQKkbROMgz7XWDDO-1">
                    <mxGeometry x="710" y="980" width="30" height="30" as="geometry"/>
                </mxCell>
                <mxCell id="JAkc_wVmphxXwERZIPBz-3" value="" style="rounded=0;whiteSpace=wrap;html=1;labelBackgroundColor=none;labelBorderColor=#33FF33;pointerEvents=1;fontFamily=Helvetica;fontSize=18;fontColor=default;startSize=0;strokeColor=#008A00;fillColor=#FFFFFF;gradientColor=none;" vertex="1" parent="WpOPuQKkbROMgz7XWDDO-1">
                    <mxGeometry x="50" y="230" width="120" height="160" as="geometry"/>
                </mxCell>
                <mxCell id="JAkc_wVmphxXwERZIPBz-9" value="&lt;font style=&quot;font-size: 14px&quot;&gt;&lt;b&gt;Nguyễn Thị A&lt;/b&gt;&lt;/font&gt;" style="text;html=1;strokeColor=none;fillColor=none;align=center;verticalAlign=middle;whiteSpace=wrap;rounded=0;labelBackgroundColor=none;labelBorderColor=none;pointerEvents=1;fontFamily=Helvetica;fontSize=18;fontColor=#02042A;startSize=0;" vertex="1" parent="WpOPuQKkbROMgz7XWDDO-1">
                    <mxGeometry x="50" y="230" width="120" height="30" as="geometry"/>
                </mxCell>
                <mxCell id="JAkc_wVmphxXwERZIPBz-10" value="&lt;font style=&quot;font-size: 13px&quot;&gt;Mã số nhân viên :1&lt;/font&gt;" style="text;html=1;strokeColor=none;fillColor=none;align=center;verticalAlign=middle;whiteSpace=wrap;rounded=0;labelBackgroundColor=none;labelBorderColor=none;pointerEvents=1;fontFamily=Helvetica;fontSize=18;fontColor=#02042A;startSize=0;" vertex="1" parent="WpOPuQKkbROMgz7XWDDO-1">
                    <mxGeometry x="50" y="260" width="120" height="30" as="geometry"/>
                </mxCell>
                <mxCell id="JAkc_wVmphxXwERZIPBz-11" value="&lt;font style=&quot;font-size: 13px&quot;&gt;Hệ số lương: 1.2&lt;/font&gt;" style="text;html=1;strokeColor=none;fillColor=none;align=center;verticalAlign=middle;whiteSpace=wrap;rounded=0;labelBackgroundColor=none;labelBorderColor=none;pointerEvents=1;fontFamily=Helvetica;fontSize=18;fontColor=#02042A;startSize=0;" vertex="1" parent="WpOPuQKkbROMgz7XWDDO-1">
                    <mxGeometry x="50" y="290" width="120" height="30" as="geometry"/>
                </mxCell>
                <mxCell id="JAkc_wVmphxXwERZIPBz-12" value="&lt;font style=&quot;font-size: 13px&quot;&gt;Số giờ làm thêm: 3&lt;/font&gt;" style="text;html=1;strokeColor=none;fillColor=none;align=center;verticalAlign=middle;whiteSpace=wrap;rounded=0;labelBackgroundColor=none;labelBorderColor=none;pointerEvents=1;fontFamily=Helvetica;fontSize=18;fontColor=#02042A;startSize=0;" vertex="1" parent="WpOPuQKkbROMgz7XWDDO-1">
                    <mxGeometry x="50" y="320" width="120" height="30" as="geometry"/>
                </mxCell>
                <mxCell id="JAkc_wVmphxXwERZIPBz-13" value="&lt;font style=&quot;font-size: 13px&quot;&gt;Lương: 960000&lt;/font&gt;" style="text;html=1;strokeColor=none;fillColor=none;align=center;verticalAlign=middle;whiteSpace=wrap;rounded=0;labelBackgroundColor=none;labelBorderColor=none;pointerEvents=1;fontFamily=Helvetica;fontSize=18;fontColor=#02042A;startSize=0;" vertex="1" parent="WpOPuQKkbROMgz7XWDDO-1">
                    <mxGeometry x="50" y="350" width="120" height="30" as="geometry"/>
                </mxCell>
                <mxCell id="JAkc_wVmphxXwERZIPBz-122" value="" style="rounded=0;whiteSpace=wrap;html=1;labelBackgroundColor=none;labelBorderColor=#33FF33;pointerEvents=1;fontFamily=Helvetica;fontSize=18;fontColor=default;startSize=0;strokeColor=#008A00;fillColor=#FFFFFF;gradientColor=none;" vertex="1" parent="WpOPuQKkbROMgz7XWDDO-1">
                    <mxGeometry x="50" y="430" width="120" height="160" as="geometry"/>
                </mxCell>
                <mxCell id="JAkc_wVmphxXwERZIPBz-123" value="&lt;font style=&quot;font-size: 14px&quot;&gt;&lt;b&gt;Nguyễn Thị G&lt;/b&gt;&lt;/font&gt;" style="text;html=1;strokeColor=none;fillColor=none;align=center;verticalAlign=middle;whiteSpace=wrap;rounded=0;labelBackgroundColor=none;labelBorderColor=none;pointerEvents=1;fontFamily=Helvetica;fontSize=18;fontColor=#02042A;startSize=0;" vertex="1" parent="WpOPuQKkbROMgz7XWDDO-1">
                    <mxGeometry x="50" y="430" width="120" height="30" as="geometry"/>
                </mxCell>
                <mxCell id="JAkc_wVmphxXwERZIPBz-124" value="&lt;font style=&quot;font-size: 13px&quot;&gt;Mã số nhân viên :1&lt;/font&gt;" style="text;html=1;strokeColor=none;fillColor=none;align=center;verticalAlign=middle;whiteSpace=wrap;rounded=0;labelBackgroundColor=none;labelBorderColor=none;pointerEvents=1;fontFamily=Helvetica;fontSize=18;fontColor=#02042A;startSize=0;" vertex="1" parent="WpOPuQKkbROMgz7XWDDO-1">
                    <mxGeometry x="50" y="460" width="120" height="30" as="geometry"/>
                </mxCell>
                <mxCell id="JAkc_wVmphxXwERZIPBz-125" value="&lt;font style=&quot;font-size: 13px&quot;&gt;Hệ số lương: 1.2&lt;/font&gt;" style="text;html=1;strokeColor=none;fillColor=none;align=center;verticalAlign=middle;whiteSpace=wrap;rounded=0;labelBackgroundColor=none;labelBorderColor=none;pointerEvents=1;fontFamily=Helvetica;fontSize=18;fontColor=#02042A;startSize=0;" vertex="1" parent="WpOPuQKkbROMgz7XWDDO-1">
                    <mxGeometry x="50" y="490" width="120" height="30" as="geometry"/>
                </mxCell>
                <mxCell id="JAkc_wVmphxXwERZIPBz-126" value="&lt;font style=&quot;font-size: 13px&quot;&gt;Số giờ làm thêm: 3&lt;/font&gt;" style="text;html=1;strokeColor=none;fillColor=none;align=center;verticalAlign=middle;whiteSpace=wrap;rounded=0;labelBackgroundColor=none;labelBorderColor=none;pointerEvents=1;fontFamily=Helvetica;fontSize=18;fontColor=#02042A;startSize=0;" vertex="1" parent="WpOPuQKkbROMgz7XWDDO-1">
                    <mxGeometry x="50" y="520" width="120" height="30" as="geometry"/>
                </mxCell>
                <mxCell id="JAkc_wVmphxXwERZIPBz-127" value="&lt;font style=&quot;font-size: 13px&quot;&gt;Lương: 960000&lt;/font&gt;" style="text;html=1;strokeColor=none;fillColor=none;align=center;verticalAlign=middle;whiteSpace=wrap;rounded=0;labelBackgroundColor=none;labelBorderColor=none;pointerEvents=1;fontFamily=Helvetica;fontSize=18;fontColor=#02042A;startSize=0;" vertex="1" parent="WpOPuQKkbROMgz7XWDDO-1">
                    <mxGeometry x="50" y="550" width="120" height="30" as="geometry"/>
                </mxCell>
                <mxCell id="JAkc_wVmphxXwERZIPBz-128" value="" style="rounded=0;whiteSpace=wrap;html=1;labelBackgroundColor=none;labelBorderColor=#33FF33;pointerEvents=1;fontFamily=Helvetica;fontSize=18;fontColor=default;startSize=0;strokeColor=#008A00;fillColor=#FFFFFF;gradientColor=none;" vertex="1" parent="WpOPuQKkbROMgz7XWDDO-1">
                    <mxGeometry x="50" y="630" width="120" height="160" as="geometry"/>
                </mxCell>
                <mxCell id="JAkc_wVmphxXwERZIPBz-129" value="&lt;font style=&quot;font-size: 14px&quot;&gt;&lt;b&gt;Nguyễn văn A&lt;/b&gt;&lt;/font&gt;" style="text;html=1;strokeColor=none;fillColor=none;align=center;verticalAlign=middle;whiteSpace=wrap;rounded=0;labelBackgroundColor=none;labelBorderColor=none;pointerEvents=1;fontFamily=Helvetica;fontSize=18;fontColor=#02042A;startSize=0;" vertex="1" parent="WpOPuQKkbROMgz7XWDDO-1">
                    <mxGeometry x="50" y="630" width="120" height="30" as="geometry"/>
                </mxCell>
                <mxCell id="JAkc_wVmphxXwERZIPBz-130" value="&lt;font style=&quot;font-size: 13px&quot;&gt;Mã số nhân viên :1&lt;/font&gt;" style="text;html=1;strokeColor=none;fillColor=none;align=center;verticalAlign=middle;whiteSpace=wrap;rounded=0;labelBackgroundColor=none;labelBorderColor=none;pointerEvents=1;fontFamily=Helvetica;fontSize=18;fontColor=#02042A;startSize=0;" vertex="1" parent="WpOPuQKkbROMgz7XWDDO-1">
                    <mxGeometry x="50" y="660" width="120" height="30" as="geometry"/>
                </mxCell>
                <mxCell id="JAkc_wVmphxXwERZIPBz-131" value="&lt;font style=&quot;font-size: 13px&quot;&gt;Hệ số lương: 1.2&lt;/font&gt;" style="text;html=1;strokeColor=none;fillColor=none;align=center;verticalAlign=middle;whiteSpace=wrap;rounded=0;labelBackgroundColor=none;labelBorderColor=none;pointerEvents=1;fontFamily=Helvetica;fontSize=18;fontColor=#02042A;startSize=0;" vertex="1" parent="WpOPuQKkbROMgz7XWDDO-1">
                    <mxGeometry x="50" y="690" width="120" height="30" as="geometry"/>
                </mxCell>
                <mxCell id="JAkc_wVmphxXwERZIPBz-132" value="&lt;font style=&quot;font-size: 13px&quot;&gt;Số giờ làm thêm: 3&lt;/font&gt;" style="text;html=1;strokeColor=none;fillColor=none;align=center;verticalAlign=middle;whiteSpace=wrap;rounded=0;labelBackgroundColor=none;labelBorderColor=none;pointerEvents=1;fontFamily=Helvetica;fontSize=18;fontColor=#02042A;startSize=0;" vertex="1" parent="WpOPuQKkbROMgz7XWDDO-1">
                    <mxGeometry x="50" y="720" width="120" height="30" as="geometry"/>
                </mxCell>
                <mxCell id="JAkc_wVmphxXwERZIPBz-133" value="&lt;font style=&quot;font-size: 13px&quot;&gt;Lương: 960000&lt;/font&gt;" style="text;html=1;strokeColor=none;fillColor=none;align=center;verticalAlign=middle;whiteSpace=wrap;rounded=0;labelBackgroundColor=none;labelBorderColor=none;pointerEvents=1;fontFamily=Helvetica;fontSize=18;fontColor=#02042A;startSize=0;" vertex="1" parent="WpOPuQKkbROMgz7XWDDO-1">
                    <mxGeometry x="50" y="750" width="120" height="30" as="geometry"/>
                </mxCell>
                <mxCell id="JAkc_wVmphxXwERZIPBz-134" value="" style="rounded=0;whiteSpace=wrap;html=1;labelBackgroundColor=none;labelBorderColor=#33FF33;pointerEvents=1;fontFamily=Helvetica;fontSize=18;fontColor=default;startSize=0;strokeColor=#008A00;fillColor=#FFFFFF;gradientColor=none;" vertex="1" parent="WpOPuQKkbROMgz7XWDDO-1">
                    <mxGeometry x="180" y="230" width="120" height="160" as="geometry"/>
                </mxCell>
                <mxCell id="JAkc_wVmphxXwERZIPBz-135" value="&lt;font style=&quot;font-size: 14px&quot;&gt;&lt;b&gt;Nguyễn văn B&lt;/b&gt;&lt;/font&gt;" style="text;html=1;strokeColor=none;fillColor=none;align=center;verticalAlign=middle;whiteSpace=wrap;rounded=0;labelBackgroundColor=none;labelBorderColor=none;pointerEvents=1;fontFamily=Helvetica;fontSize=18;fontColor=#02042A;startSize=0;" vertex="1" parent="WpOPuQKkbROMgz7XWDDO-1">
                    <mxGeometry x="180" y="230" width="120" height="30" as="geometry"/>
                </mxCell>
                <mxCell id="JAkc_wVmphxXwERZIPBz-136" value="&lt;font style=&quot;font-size: 13px&quot;&gt;Mã số nhân viên :1&lt;/font&gt;" style="text;html=1;strokeColor=none;fillColor=none;align=center;verticalAlign=middle;whiteSpace=wrap;rounded=0;labelBackgroundColor=none;labelBorderColor=none;pointerEvents=1;fontFamily=Helvetica;fontSize=18;fontColor=#02042A;startSize=0;" vertex="1" parent="WpOPuQKkbROMgz7XWDDO-1">
                    <mxGeometry x="180" y="260" width="120" height="30" as="geometry"/>
                </mxCell>
                <mxCell id="JAkc_wVmphxXwERZIPBz-137" value="&lt;font style=&quot;font-size: 13px&quot;&gt;Hệ số lương: 1.2&lt;/font&gt;" style="text;html=1;strokeColor=none;fillColor=none;align=center;verticalAlign=middle;whiteSpace=wrap;rounded=0;labelBackgroundColor=none;labelBorderColor=none;pointerEvents=1;fontFamily=Helvetica;fontSize=18;fontColor=#02042A;startSize=0;" vertex="1" parent="WpOPuQKkbROMgz7XWDDO-1">
                    <mxGeometry x="180" y="290" width="120" height="30" as="geometry"/>
                </mxCell>
                <mxCell id="JAkc_wVmphxXwERZIPBz-138" value="&lt;font style=&quot;font-size: 13px&quot;&gt;Số giờ làm thêm: 3&lt;/font&gt;" style="text;html=1;strokeColor=none;fillColor=none;align=center;verticalAlign=middle;whiteSpace=wrap;rounded=0;labelBackgroundColor=none;labelBorderColor=none;pointerEvents=1;fontFamily=Helvetica;fontSize=18;fontColor=#02042A;startSize=0;" vertex="1" parent="WpOPuQKkbROMgz7XWDDO-1">
                    <mxGeometry x="180" y="320" width="120" height="30" as="geometry"/>
                </mxCell>
                <mxCell id="JAkc_wVmphxXwERZIPBz-139" value="&lt;font style=&quot;font-size: 13px&quot;&gt;Lương: 960000&lt;/font&gt;" style="text;html=1;strokeColor=none;fillColor=none;align=center;verticalAlign=middle;whiteSpace=wrap;rounded=0;labelBackgroundColor=none;labelBorderColor=none;pointerEvents=1;fontFamily=Helvetica;fontSize=18;fontColor=#02042A;startSize=0;" vertex="1" parent="WpOPuQKkbROMgz7XWDDO-1">
                    <mxGeometry x="180" y="350" width="120" height="30" as="geometry"/>
                </mxCell>
                <mxCell id="JAkc_wVmphxXwERZIPBz-140" value="" style="rounded=0;whiteSpace=wrap;html=1;labelBackgroundColor=none;labelBorderColor=#33FF33;pointerEvents=1;fontFamily=Helvetica;fontSize=18;fontColor=default;startSize=0;strokeColor=#008A00;fillColor=#FFFFFF;gradientColor=none;" vertex="1" parent="WpOPuQKkbROMgz7XWDDO-1">
                    <mxGeometry x="310" y="230" width="120" height="160" as="geometry"/>
                </mxCell>
                <mxCell id="JAkc_wVmphxXwERZIPBz-141" value="&lt;font style=&quot;font-size: 14px&quot;&gt;&lt;b&gt;Nguyễn Văn C&lt;/b&gt;&lt;/font&gt;" style="text;html=1;strokeColor=none;fillColor=none;align=center;verticalAlign=middle;whiteSpace=wrap;rounded=0;labelBackgroundColor=none;labelBorderColor=none;pointerEvents=1;fontFamily=Helvetica;fontSize=18;fontColor=#02042A;startSize=0;" vertex="1" parent="WpOPuQKkbROMgz7XWDDO-1">
                    <mxGeometry x="310" y="230" width="120" height="30" as="geometry"/>
                </mxCell>
                <mxCell id="JAkc_wVmphxXwERZIPBz-142" value="&lt;font style=&quot;font-size: 13px&quot;&gt;Mã số nhân viên :1&lt;/font&gt;" style="text;html=1;strokeColor=none;fillColor=none;align=center;verticalAlign=middle;whiteSpace=wrap;rounded=0;labelBackgroundColor=none;labelBorderColor=none;pointerEvents=1;fontFamily=Helvetica;fontSize=18;fontColor=#02042A;startSize=0;" vertex="1" parent="WpOPuQKkbROMgz7XWDDO-1">
                    <mxGeometry x="310" y="260" width="120" height="30" as="geometry"/>
                </mxCell>
                <mxCell id="JAkc_wVmphxXwERZIPBz-143" value="&lt;font style=&quot;font-size: 13px&quot;&gt;Hệ số lương: 1.2&lt;/font&gt;" style="text;html=1;strokeColor=none;fillColor=none;align=center;verticalAlign=middle;whiteSpace=wrap;rounded=0;labelBackgroundColor=none;labelBorderColor=none;pointerEvents=1;fontFamily=Helvetica;fontSize=18;fontColor=#02042A;startSize=0;" vertex="1" parent="WpOPuQKkbROMgz7XWDDO-1">
                    <mxGeometry x="310" y="290" width="120" height="30" as="geometry"/>
                </mxCell>
                <mxCell id="JAkc_wVmphxXwERZIPBz-144" value="&lt;font style=&quot;font-size: 13px&quot;&gt;Số giờ làm thêm: 3&lt;/font&gt;" style="text;html=1;strokeColor=none;fillColor=none;align=center;verticalAlign=middle;whiteSpace=wrap;rounded=0;labelBackgroundColor=none;labelBorderColor=none;pointerEvents=1;fontFamily=Helvetica;fontSize=18;fontColor=#02042A;startSize=0;" vertex="1" parent="WpOPuQKkbROMgz7XWDDO-1">
                    <mxGeometry x="310" y="320" width="120" height="30" as="geometry"/>
                </mxCell>
                <mxCell id="JAkc_wVmphxXwERZIPBz-145" value="&lt;font style=&quot;font-size: 13px&quot;&gt;Lương: 960000&lt;/font&gt;" style="text;html=1;strokeColor=none;fillColor=none;align=center;verticalAlign=middle;whiteSpace=wrap;rounded=0;labelBackgroundColor=none;labelBorderColor=none;pointerEvents=1;fontFamily=Helvetica;fontSize=18;fontColor=#02042A;startSize=0;" vertex="1" parent="WpOPuQKkbROMgz7XWDDO-1">
                    <mxGeometry x="310" y="350" width="120" height="30" as="geometry"/>
                </mxCell>
                <mxCell id="JAkc_wVmphxXwERZIPBz-146" value="" style="rounded=0;whiteSpace=wrap;html=1;labelBackgroundColor=none;labelBorderColor=#33FF33;pointerEvents=1;fontFamily=Helvetica;fontSize=18;fontColor=default;startSize=0;strokeColor=#008A00;fillColor=#FFFFFF;gradientColor=none;" vertex="1" parent="WpOPuQKkbROMgz7XWDDO-1">
                    <mxGeometry x="440" y="230" width="120" height="160" as="geometry"/>
                </mxCell>
                <mxCell id="JAkc_wVmphxXwERZIPBz-147" value="&lt;font style=&quot;font-size: 14px&quot;&gt;&lt;b&gt;Nguyễn văn D&lt;/b&gt;&lt;/font&gt;" style="text;html=1;strokeColor=none;fillColor=none;align=center;verticalAlign=middle;whiteSpace=wrap;rounded=0;labelBackgroundColor=none;labelBorderColor=none;pointerEvents=1;fontFamily=Helvetica;fontSize=18;fontColor=#02042A;startSize=0;" vertex="1" parent="WpOPuQKkbROMgz7XWDDO-1">
                    <mxGeometry x="440" y="230" width="120" height="30" as="geometry"/>
                </mxCell>
                <mxCell id="JAkc_wVmphxXwERZIPBz-148" value="&lt;font style=&quot;font-size: 13px&quot;&gt;Mã số nhân viên :1&lt;/font&gt;" style="text;html=1;strokeColor=none;fillColor=none;align=center;verticalAlign=middle;whiteSpace=wrap;rounded=0;labelBackgroundColor=none;labelBorderColor=none;pointerEvents=1;fontFamily=Helvetica;fontSize=18;fontColor=#02042A;startSize=0;" vertex="1" parent="WpOPuQKkbROMgz7XWDDO-1">
                    <mxGeometry x="440" y="260" width="120" height="30" as="geometry"/>
                </mxCell>
                <mxCell id="JAkc_wVmphxXwERZIPBz-149" value="&lt;font style=&quot;font-size: 13px&quot;&gt;Hệ số lương: 1.2&lt;/font&gt;" style="text;html=1;strokeColor=none;fillColor=none;align=center;verticalAlign=middle;whiteSpace=wrap;rounded=0;labelBackgroundColor=none;labelBorderColor=none;pointerEvents=1;fontFamily=Helvetica;fontSize=18;fontColor=#02042A;startSize=0;" vertex="1" parent="WpOPuQKkbROMgz7XWDDO-1">
                    <mxGeometry x="440" y="290" width="120" height="30" as="geometry"/>
                </mxCell>
                <mxCell id="JAkc_wVmphxXwERZIPBz-150" value="&lt;font style=&quot;font-size: 13px&quot;&gt;Số giờ làm thêm: 3&lt;/font&gt;" style="text;html=1;strokeColor=none;fillColor=none;align=center;verticalAlign=middle;whiteSpace=wrap;rounded=0;labelBackgroundColor=none;labelBorderColor=none;pointerEvents=1;fontFamily=Helvetica;fontSize=18;fontColor=#02042A;startSize=0;" vertex="1" parent="WpOPuQKkbROMgz7XWDDO-1">
                    <mxGeometry x="440" y="320" width="120" height="30" as="geometry"/>
                </mxCell>
                <mxCell id="JAkc_wVmphxXwERZIPBz-151" value="&lt;font style=&quot;font-size: 13px&quot;&gt;Lương: 960000&lt;/font&gt;" style="text;html=1;strokeColor=none;fillColor=none;align=center;verticalAlign=middle;whiteSpace=wrap;rounded=0;labelBackgroundColor=none;labelBorderColor=none;pointerEvents=1;fontFamily=Helvetica;fontSize=18;fontColor=#02042A;startSize=0;" vertex="1" parent="WpOPuQKkbROMgz7XWDDO-1">
                    <mxGeometry x="440" y="350" width="120" height="30" as="geometry"/>
                </mxCell>
                <mxCell id="JAkc_wVmphxXwERZIPBz-152" value="" style="rounded=0;whiteSpace=wrap;html=1;labelBackgroundColor=none;labelBorderColor=#33FF33;pointerEvents=1;fontFamily=Helvetica;fontSize=18;fontColor=default;startSize=0;strokeColor=#008A00;fillColor=#FFFFFF;gradientColor=none;" vertex="1" parent="WpOPuQKkbROMgz7XWDDO-1">
                    <mxGeometry x="570" y="230" width="120" height="160" as="geometry"/>
                </mxCell>
                <mxCell id="JAkc_wVmphxXwERZIPBz-153" value="&lt;font style=&quot;font-size: 14px&quot;&gt;&lt;b&gt;Nguyễn Thị E&lt;/b&gt;&lt;/font&gt;" style="text;html=1;strokeColor=none;fillColor=none;align=center;verticalAlign=middle;whiteSpace=wrap;rounded=0;labelBackgroundColor=none;labelBorderColor=none;pointerEvents=1;fontFamily=Helvetica;fontSize=18;fontColor=#02042A;startSize=0;" vertex="1" parent="WpOPuQKkbROMgz7XWDDO-1">
                    <mxGeometry x="570" y="230" width="120" height="30" as="geometry"/>
                </mxCell>
                <mxCell id="JAkc_wVmphxXwERZIPBz-154" value="&lt;font style=&quot;font-size: 13px&quot;&gt;Mã số nhân viên :1&lt;/font&gt;" style="text;html=1;strokeColor=none;fillColor=none;align=center;verticalAlign=middle;whiteSpace=wrap;rounded=0;labelBackgroundColor=none;labelBorderColor=none;pointerEvents=1;fontFamily=Helvetica;fontSize=18;fontColor=#02042A;startSize=0;" vertex="1" parent="WpOPuQKkbROMgz7XWDDO-1">
                    <mxGeometry x="570" y="260" width="120" height="30" as="geometry"/>
                </mxCell>
                <mxCell id="JAkc_wVmphxXwERZIPBz-155" value="&lt;font style=&quot;font-size: 13px&quot;&gt;Hệ số lương: 1.2&lt;/font&gt;" style="text;html=1;strokeColor=none;fillColor=none;align=center;verticalAlign=middle;whiteSpace=wrap;rounded=0;labelBackgroundColor=none;labelBorderColor=none;pointerEvents=1;fontFamily=Helvetica;fontSize=18;fontColor=#02042A;startSize=0;" vertex="1" parent="WpOPuQKkbROMgz7XWDDO-1">
                    <mxGeometry x="570" y="290" width="120" height="30" as="geometry"/>
                </mxCell>
                <mxCell id="JAkc_wVmphxXwERZIPBz-156" value="&lt;font style=&quot;font-size: 13px&quot;&gt;Số giờ làm thêm: 3&lt;/font&gt;" style="text;html=1;strokeColor=none;fillColor=none;align=center;verticalAlign=middle;whiteSpace=wrap;rounded=0;labelBackgroundColor=none;labelBorderColor=none;pointerEvents=1;fontFamily=Helvetica;fontSize=18;fontColor=#02042A;startSize=0;" vertex="1" parent="WpOPuQKkbROMgz7XWDDO-1">
                    <mxGeometry x="570" y="320" width="120" height="30" as="geometry"/>
                </mxCell>
                <mxCell id="JAkc_wVmphxXwERZIPBz-157" value="&lt;font style=&quot;font-size: 13px&quot;&gt;Lương: 960000&lt;/font&gt;" style="text;html=1;strokeColor=none;fillColor=none;align=center;verticalAlign=middle;whiteSpace=wrap;rounded=0;labelBackgroundColor=none;labelBorderColor=none;pointerEvents=1;fontFamily=Helvetica;fontSize=18;fontColor=#02042A;startSize=0;" vertex="1" parent="WpOPuQKkbROMgz7XWDDO-1">
                    <mxGeometry x="570" y="350" width="120" height="30" as="geometry"/>
                </mxCell>
                <mxCell id="JAkc_wVmphxXwERZIPBz-158" value="" style="rounded=0;whiteSpace=wrap;html=1;labelBackgroundColor=none;labelBorderColor=#33FF33;pointerEvents=1;fontFamily=Helvetica;fontSize=18;fontColor=default;startSize=0;strokeColor=#008A00;fillColor=#FFFFFF;gradientColor=none;" vertex="1" parent="WpOPuQKkbROMgz7XWDDO-1">
                    <mxGeometry x="700" y="230" width="120" height="160" as="geometry"/>
                </mxCell>
                <mxCell id="JAkc_wVmphxXwERZIPBz-159" value="&lt;font style=&quot;font-size: 14px&quot;&gt;&lt;b&gt;Nguyễn văn F&lt;/b&gt;&lt;/font&gt;" style="text;html=1;strokeColor=none;fillColor=none;align=center;verticalAlign=middle;whiteSpace=wrap;rounded=0;labelBackgroundColor=none;labelBorderColor=none;pointerEvents=1;fontFamily=Helvetica;fontSize=18;fontColor=#02042A;startSize=0;" vertex="1" parent="WpOPuQKkbROMgz7XWDDO-1">
                    <mxGeometry x="700" y="230" width="120" height="30" as="geometry"/>
                </mxCell>
                <mxCell id="JAkc_wVmphxXwERZIPBz-160" value="&lt;font style=&quot;font-size: 13px&quot;&gt;Mã số nhân viên :1&lt;/font&gt;" style="text;html=1;strokeColor=none;fillColor=none;align=center;verticalAlign=middle;whiteSpace=wrap;rounded=0;labelBackgroundColor=none;labelBorderColor=none;pointerEvents=1;fontFamily=Helvetica;fontSize=18;fontColor=#02042A;startSize=0;" vertex="1" parent="WpOPuQKkbROMgz7XWDDO-1">
                    <mxGeometry x="700" y="260" width="120" height="30" as="geometry"/>
                </mxCell>
                <mxCell id="JAkc_wVmphxXwERZIPBz-161" value="&lt;font style=&quot;font-size: 13px&quot;&gt;Hệ số lương: 1.2&lt;/font&gt;" style="text;html=1;strokeColor=none;fillColor=none;align=center;verticalAlign=middle;whiteSpace=wrap;rounded=0;labelBackgroundColor=none;labelBorderColor=none;pointerEvents=1;fontFamily=Helvetica;fontSize=18;fontColor=#02042A;startSize=0;" vertex="1" parent="WpOPuQKkbROMgz7XWDDO-1">
                    <mxGeometry x="700" y="290" width="120" height="30" as="geometry"/>
                </mxCell>
                <mxCell id="JAkc_wVmphxXwERZIPBz-162" value="&lt;font style=&quot;font-size: 13px&quot;&gt;Số giờ làm thêm: 3&lt;/font&gt;" style="text;html=1;strokeColor=none;fillColor=none;align=center;verticalAlign=middle;whiteSpace=wrap;rounded=0;labelBackgroundColor=none;labelBorderColor=none;pointerEvents=1;fontFamily=Helvetica;fontSize=18;fontColor=#02042A;startSize=0;" vertex="1" parent="WpOPuQKkbROMgz7XWDDO-1">
                    <mxGeometry x="700" y="320" width="120" height="30" as="geometry"/>
                </mxCell>
                <mxCell id="JAkc_wVmphxXwERZIPBz-163" value="&lt;font style=&quot;font-size: 13px&quot;&gt;Lương: 960000&lt;/font&gt;" style="text;html=1;strokeColor=none;fillColor=none;align=center;verticalAlign=middle;whiteSpace=wrap;rounded=0;labelBackgroundColor=none;labelBorderColor=none;pointerEvents=1;fontFamily=Helvetica;fontSize=18;fontColor=#02042A;startSize=0;" vertex="1" parent="WpOPuQKkbROMgz7XWDDO-1">
                    <mxGeometry x="700" y="350" width="120" height="30" as="geometry"/>
                </mxCell>
                <mxCell id="JAkc_wVmphxXwERZIPBz-164" value="" style="rounded=0;whiteSpace=wrap;html=1;labelBackgroundColor=none;labelBorderColor=#33FF33;pointerEvents=1;fontFamily=Helvetica;fontSize=18;fontColor=default;startSize=0;strokeColor=#008A00;fillColor=#FFFFFF;gradientColor=none;" vertex="1" parent="WpOPuQKkbROMgz7XWDDO-1">
                    <mxGeometry x="180" y="430" width="120" height="160" as="geometry"/>
                </mxCell>
                <mxCell id="JAkc_wVmphxXwERZIPBz-165" value="&lt;font style=&quot;font-size: 14px&quot;&gt;&lt;b&gt;Nguyễn Thị&amp;nbsp; H&lt;/b&gt;&lt;/font&gt;" style="text;html=1;strokeColor=none;fillColor=none;align=center;verticalAlign=middle;whiteSpace=wrap;rounded=0;labelBackgroundColor=none;labelBorderColor=none;pointerEvents=1;fontFamily=Helvetica;fontSize=18;fontColor=#02042A;startSize=0;" vertex="1" parent="WpOPuQKkbROMgz7XWDDO-1">
                    <mxGeometry x="180" y="430" width="120" height="30" as="geometry"/>
                </mxCell>
                <mxCell id="JAkc_wVmphxXwERZIPBz-166" value="&lt;font style=&quot;font-size: 13px&quot;&gt;Mã số nhân viên :1&lt;/font&gt;" style="text;html=1;strokeColor=none;fillColor=none;align=center;verticalAlign=middle;whiteSpace=wrap;rounded=0;labelBackgroundColor=none;labelBorderColor=none;pointerEvents=1;fontFamily=Helvetica;fontSize=18;fontColor=#02042A;startSize=0;" vertex="1" parent="WpOPuQKkbROMgz7XWDDO-1">
                    <mxGeometry x="180" y="460" width="120" height="30" as="geometry"/>
                </mxCell>
                <mxCell id="JAkc_wVmphxXwERZIPBz-167" value="&lt;font style=&quot;font-size: 13px&quot;&gt;Hệ số lương: 1.2&lt;/font&gt;" style="text;html=1;strokeColor=none;fillColor=none;align=center;verticalAlign=middle;whiteSpace=wrap;rounded=0;labelBackgroundColor=none;labelBorderColor=none;pointerEvents=1;fontFamily=Helvetica;fontSize=18;fontColor=#02042A;startSize=0;" vertex="1" parent="WpOPuQKkbROMgz7XWDDO-1">
                    <mxGeometry x="180" y="490" width="120" height="30" as="geometry"/>
                </mxCell>
                <mxCell id="JAkc_wVmphxXwERZIPBz-168" value="&lt;font style=&quot;font-size: 13px&quot;&gt;Số giờ làm thêm: 3&lt;/font&gt;" style="text;html=1;strokeColor=none;fillColor=none;align=center;verticalAlign=middle;whiteSpace=wrap;rounded=0;labelBackgroundColor=none;labelBorderColor=none;pointerEvents=1;fontFamily=Helvetica;fontSize=18;fontColor=#02042A;startSize=0;" vertex="1" parent="WpOPuQKkbROMgz7XWDDO-1">
                    <mxGeometry x="180" y="520" width="120" height="30" as="geometry"/>
                </mxCell>
                <mxCell id="JAkc_wVmphxXwERZIPBz-169" value="&lt;font style=&quot;font-size: 13px&quot;&gt;Lương: 960000&lt;/font&gt;" style="text;html=1;strokeColor=none;fillColor=none;align=center;verticalAlign=middle;whiteSpace=wrap;rounded=0;labelBackgroundColor=none;labelBorderColor=none;pointerEvents=1;fontFamily=Helvetica;fontSize=18;fontColor=#02042A;startSize=0;" vertex="1" parent="WpOPuQKkbROMgz7XWDDO-1">
                    <mxGeometry x="180" y="550" width="120" height="30" as="geometry"/>
                </mxCell>
                <mxCell id="JAkc_wVmphxXwERZIPBz-170" value="" style="rounded=0;whiteSpace=wrap;html=1;labelBackgroundColor=none;labelBorderColor=#33FF33;pointerEvents=1;fontFamily=Helvetica;fontSize=18;fontColor=default;startSize=0;strokeColor=#008A00;fillColor=#FFFFFF;gradientColor=none;" vertex="1" parent="WpOPuQKkbROMgz7XWDDO-1">
                    <mxGeometry x="310" y="430" width="120" height="160" as="geometry"/>
                </mxCell>
                <mxCell id="JAkc_wVmphxXwERZIPBz-171" value="&lt;font style=&quot;font-size: 14px&quot;&gt;&lt;b&gt;Nguyễn Văn A&lt;/b&gt;&lt;/font&gt;" style="text;html=1;strokeColor=none;fillColor=none;align=center;verticalAlign=middle;whiteSpace=wrap;rounded=0;labelBackgroundColor=none;labelBorderColor=none;pointerEvents=1;fontFamily=Helvetica;fontSize=18;fontColor=#02042A;startSize=0;" vertex="1" parent="WpOPuQKkbROMgz7XWDDO-1">
                    <mxGeometry x="310" y="430" width="120" height="30" as="geometry"/>
                </mxCell>
                <mxCell id="JAkc_wVmphxXwERZIPBz-172" value="&lt;font style=&quot;font-size: 13px&quot;&gt;Mã số nhân viên :1&lt;/font&gt;" style="text;html=1;strokeColor=none;fillColor=none;align=center;verticalAlign=middle;whiteSpace=wrap;rounded=0;labelBackgroundColor=none;labelBorderColor=none;pointerEvents=1;fontFamily=Helvetica;fontSize=18;fontColor=#02042A;startSize=0;" vertex="1" parent="WpOPuQKkbROMgz7XWDDO-1">
                    <mxGeometry x="310" y="460" width="120" height="30" as="geometry"/>
                </mxCell>
                <mxCell id="JAkc_wVmphxXwERZIPBz-173" value="&lt;font style=&quot;font-size: 13px&quot;&gt;Hệ số lương: 1.2&lt;/font&gt;" style="text;html=1;strokeColor=none;fillColor=none;align=center;verticalAlign=middle;whiteSpace=wrap;rounded=0;labelBackgroundColor=none;labelBorderColor=none;pointerEvents=1;fontFamily=Helvetica;fontSize=18;fontColor=#02042A;startSize=0;" vertex="1" parent="WpOPuQKkbROMgz7XWDDO-1">
                    <mxGeometry x="310" y="490" width="120" height="30" as="geometry"/>
                </mxCell>
                <mxCell id="JAkc_wVmphxXwERZIPBz-174" value="&lt;font style=&quot;font-size: 13px&quot;&gt;Số giờ làm thêm: 3&lt;/font&gt;" style="text;html=1;strokeColor=none;fillColor=none;align=center;verticalAlign=middle;whiteSpace=wrap;rounded=0;labelBackgroundColor=none;labelBorderColor=none;pointerEvents=1;fontFamily=Helvetica;fontSize=18;fontColor=#02042A;startSize=0;" vertex="1" parent="WpOPuQKkbROMgz7XWDDO-1">
                    <mxGeometry x="310" y="520" width="120" height="30" as="geometry"/>
                </mxCell>
                <mxCell id="JAkc_wVmphxXwERZIPBz-175" value="&lt;font style=&quot;font-size: 13px&quot;&gt;Lương: 960000&lt;/font&gt;" style="text;html=1;strokeColor=none;fillColor=none;align=center;verticalAlign=middle;whiteSpace=wrap;rounded=0;labelBackgroundColor=none;labelBorderColor=none;pointerEvents=1;fontFamily=Helvetica;fontSize=18;fontColor=#02042A;startSize=0;" vertex="1" parent="WpOPuQKkbROMgz7XWDDO-1">
                    <mxGeometry x="310" y="550" width="120" height="30" as="geometry"/>
                </mxCell>
                <mxCell id="JAkc_wVmphxXwERZIPBz-176" value="" style="rounded=0;whiteSpace=wrap;html=1;labelBackgroundColor=none;labelBorderColor=#33FF33;pointerEvents=1;fontFamily=Helvetica;fontSize=18;fontColor=default;startSize=0;strokeColor=#008A00;fillColor=#FFFFFF;gradientColor=none;" vertex="1" parent="WpOPuQKkbROMgz7XWDDO-1">
                    <mxGeometry x="440" y="430" width="120" height="160" as="geometry"/>
                </mxCell>
                <mxCell id="JAkc_wVmphxXwERZIPBz-177" value="&lt;font style=&quot;font-size: 14px&quot;&gt;&lt;b&gt;Nguyễn văn A&lt;/b&gt;&lt;/font&gt;" style="text;html=1;strokeColor=none;fillColor=none;align=center;verticalAlign=middle;whiteSpace=wrap;rounded=0;labelBackgroundColor=none;labelBorderColor=none;pointerEvents=1;fontFamily=Helvetica;fontSize=18;fontColor=#02042A;startSize=0;" vertex="1" parent="WpOPuQKkbROMgz7XWDDO-1">
                    <mxGeometry x="440" y="430" width="120" height="30" as="geometry"/>
                </mxCell>
                <mxCell id="JAkc_wVmphxXwERZIPBz-178" value="&lt;font style=&quot;font-size: 13px&quot;&gt;Mã số nhân viên :1&lt;/font&gt;" style="text;html=1;strokeColor=none;fillColor=none;align=center;verticalAlign=middle;whiteSpace=wrap;rounded=0;labelBackgroundColor=none;labelBorderColor=none;pointerEvents=1;fontFamily=Helvetica;fontSize=18;fontColor=#02042A;startSize=0;" vertex="1" parent="WpOPuQKkbROMgz7XWDDO-1">
                    <mxGeometry x="440" y="460" width="120" height="30" as="geometry"/>
                </mxCell>
                <mxCell id="JAkc_wVmphxXwERZIPBz-179" value="&lt;font style=&quot;font-size: 13px&quot;&gt;Hệ số lương: 1.2&lt;/font&gt;" style="text;html=1;strokeColor=none;fillColor=none;align=center;verticalAlign=middle;whiteSpace=wrap;rounded=0;labelBackgroundColor=none;labelBorderColor=none;pointerEvents=1;fontFamily=Helvetica;fontSize=18;fontColor=#02042A;startSize=0;" vertex="1" parent="WpOPuQKkbROMgz7XWDDO-1">
                    <mxGeometry x="440" y="490" width="120" height="30" as="geometry"/>
                </mxCell>
                <mxCell id="JAkc_wVmphxXwERZIPBz-180" value="&lt;font style=&quot;font-size: 13px&quot;&gt;Số giờ làm thêm: 3&lt;/font&gt;" style="text;html=1;strokeColor=none;fillColor=none;align=center;verticalAlign=middle;whiteSpace=wrap;rounded=0;labelBackgroundColor=none;labelBorderColor=none;pointerEvents=1;fontFamily=Helvetica;fontSize=18;fontColor=#02042A;startSize=0;" vertex="1" parent="WpOPuQKkbROMgz7XWDDO-1">
                    <mxGeometry x="440" y="520" width="120" height="30" as="geometry"/>
                </mxCell>
                <mxCell id="JAkc_wVmphxXwERZIPBz-181" value="&lt;font style=&quot;font-size: 13px&quot;&gt;Lương: 960000&lt;/font&gt;" style="text;html=1;strokeColor=none;fillColor=none;align=center;verticalAlign=middle;whiteSpace=wrap;rounded=0;labelBackgroundColor=none;labelBorderColor=none;pointerEvents=1;fontFamily=Helvetica;fontSize=18;fontColor=#02042A;startSize=0;" vertex="1" parent="WpOPuQKkbROMgz7XWDDO-1">
                    <mxGeometry x="440" y="550" width="120" height="30" as="geometry"/>
                </mxCell>
                <mxCell id="JAkc_wVmphxXwERZIPBz-182" value="" style="rounded=0;whiteSpace=wrap;html=1;labelBackgroundColor=none;labelBorderColor=#33FF33;pointerEvents=1;fontFamily=Helvetica;fontSize=18;fontColor=default;startSize=0;strokeColor=#008A00;fillColor=#FFFFFF;gradientColor=none;" vertex="1" parent="WpOPuQKkbROMgz7XWDDO-1">
                    <mxGeometry x="570" y="430" width="120" height="160" as="geometry"/>
                </mxCell>
                <mxCell id="JAkc_wVmphxXwERZIPBz-183" value="&lt;font style=&quot;font-size: 14px&quot;&gt;&lt;b&gt;Nguyễn văn A&lt;/b&gt;&lt;/font&gt;" style="text;html=1;strokeColor=none;fillColor=none;align=center;verticalAlign=middle;whiteSpace=wrap;rounded=0;labelBackgroundColor=none;labelBorderColor=none;pointerEvents=1;fontFamily=Helvetica;fontSize=18;fontColor=#02042A;startSize=0;" vertex="1" parent="WpOPuQKkbROMgz7XWDDO-1">
                    <mxGeometry x="570" y="430" width="120" height="30" as="geometry"/>
                </mxCell>
                <mxCell id="JAkc_wVmphxXwERZIPBz-184" value="&lt;font style=&quot;font-size: 13px&quot;&gt;Mã số nhân viên :1&lt;/font&gt;" style="text;html=1;strokeColor=none;fillColor=none;align=center;verticalAlign=middle;whiteSpace=wrap;rounded=0;labelBackgroundColor=none;labelBorderColor=none;pointerEvents=1;fontFamily=Helvetica;fontSize=18;fontColor=#02042A;startSize=0;" vertex="1" parent="WpOPuQKkbROMgz7XWDDO-1">
                    <mxGeometry x="570" y="460" width="120" height="30" as="geometry"/>
                </mxCell>
                <mxCell id="JAkc_wVmphxXwERZIPBz-185" value="&lt;font style=&quot;font-size: 13px&quot;&gt;Hệ số lương: 1.2&lt;/font&gt;" style="text;html=1;strokeColor=none;fillColor=none;align=center;verticalAlign=middle;whiteSpace=wrap;rounded=0;labelBackgroundColor=none;labelBorderColor=none;pointerEvents=1;fontFamily=Helvetica;fontSize=18;fontColor=#02042A;startSize=0;" vertex="1" parent="WpOPuQKkbROMgz7XWDDO-1">
                    <mxGeometry x="570" y="490" width="120" height="30" as="geometry"/>
                </mxCell>
                <mxCell id="JAkc_wVmphxXwERZIPBz-186" value="&lt;font style=&quot;font-size: 13px&quot;&gt;Số giờ làm thêm: 3&lt;/font&gt;" style="text;html=1;strokeColor=none;fillColor=none;align=center;verticalAlign=middle;whiteSpace=wrap;rounded=0;labelBackgroundColor=none;labelBorderColor=none;pointerEvents=1;fontFamily=Helvetica;fontSize=18;fontColor=#02042A;startSize=0;" vertex="1" parent="WpOPuQKkbROMgz7XWDDO-1">
                    <mxGeometry x="570" y="520" width="120" height="30" as="geometry"/>
                </mxCell>
                <mxCell id="JAkc_wVmphxXwERZIPBz-187" value="&lt;font style=&quot;font-size: 13px&quot;&gt;Lương: 960000&lt;/font&gt;" style="text;html=1;strokeColor=none;fillColor=none;align=center;verticalAlign=middle;whiteSpace=wrap;rounded=0;labelBackgroundColor=none;labelBorderColor=none;pointerEvents=1;fontFamily=Helvetica;fontSize=18;fontColor=#02042A;startSize=0;" vertex="1" parent="WpOPuQKkbROMgz7XWDDO-1">
                    <mxGeometry x="570" y="550" width="120" height="30" as="geometry"/>
                </mxCell>
                <mxCell id="JAkc_wVmphxXwERZIPBz-188" value="" style="rounded=0;whiteSpace=wrap;html=1;labelBackgroundColor=none;labelBorderColor=#33FF33;pointerEvents=1;fontFamily=Helvetica;fontSize=18;fontColor=default;startSize=0;strokeColor=#008A00;fillColor=#FFFFFF;gradientColor=none;" vertex="1" parent="WpOPuQKkbROMgz7XWDDO-1">
                    <mxGeometry x="700" y="430" width="120" height="160" as="geometry"/>
                </mxCell>
                <mxCell id="JAkc_wVmphxXwERZIPBz-189" value="&lt;font style=&quot;font-size: 14px&quot;&gt;&lt;b&gt;Nguyễn văn A&lt;/b&gt;&lt;/font&gt;" style="text;html=1;strokeColor=none;fillColor=none;align=center;verticalAlign=middle;whiteSpace=wrap;rounded=0;labelBackgroundColor=none;labelBorderColor=none;pointerEvents=1;fontFamily=Helvetica;fontSize=18;fontColor=#02042A;startSize=0;" vertex="1" parent="WpOPuQKkbROMgz7XWDDO-1">
                    <mxGeometry x="700" y="430" width="120" height="30" as="geometry"/>
                </mxCell>
                <mxCell id="JAkc_wVmphxXwERZIPBz-190" value="&lt;font style=&quot;font-size: 13px&quot;&gt;Mã số nhân viên :1&lt;/font&gt;" style="text;html=1;strokeColor=none;fillColor=none;align=center;verticalAlign=middle;whiteSpace=wrap;rounded=0;labelBackgroundColor=none;labelBorderColor=none;pointerEvents=1;fontFamily=Helvetica;fontSize=18;fontColor=#02042A;startSize=0;" vertex="1" parent="WpOPuQKkbROMgz7XWDDO-1">
                    <mxGeometry x="700" y="460" width="120" height="30" as="geometry"/>
                </mxCell>
                <mxCell id="JAkc_wVmphxXwERZIPBz-191" value="&lt;font style=&quot;font-size: 13px&quot;&gt;Hệ số lương: 1.2&lt;/font&gt;" style="text;html=1;strokeColor=none;fillColor=none;align=center;verticalAlign=middle;whiteSpace=wrap;rounded=0;labelBackgroundColor=none;labelBorderColor=none;pointerEvents=1;fontFamily=Helvetica;fontSize=18;fontColor=#02042A;startSize=0;" vertex="1" parent="WpOPuQKkbROMgz7XWDDO-1">
                    <mxGeometry x="700" y="490" width="120" height="30" as="geometry"/>
                </mxCell>
                <mxCell id="JAkc_wVmphxXwERZIPBz-192" value="&lt;font style=&quot;font-size: 13px&quot;&gt;Số giờ làm thêm: 3&lt;/font&gt;" style="text;html=1;strokeColor=none;fillColor=none;align=center;verticalAlign=middle;whiteSpace=wrap;rounded=0;labelBackgroundColor=none;labelBorderColor=none;pointerEvents=1;fontFamily=Helvetica;fontSize=18;fontColor=#02042A;startSize=0;" vertex="1" parent="WpOPuQKkbROMgz7XWDDO-1">
                    <mxGeometry x="700" y="520" width="120" height="30" as="geometry"/>
                </mxCell>
                <mxCell id="JAkc_wVmphxXwERZIPBz-193" value="&lt;font style=&quot;font-size: 13px&quot;&gt;Lương: 960000&lt;/font&gt;" style="text;html=1;strokeColor=none;fillColor=none;align=center;verticalAlign=middle;whiteSpace=wrap;rounded=0;labelBackgroundColor=none;labelBorderColor=none;pointerEvents=1;fontFamily=Helvetica;fontSize=18;fontColor=#02042A;startSize=0;" vertex="1" parent="WpOPuQKkbROMgz7XWDDO-1">
                    <mxGeometry x="700" y="550" width="120" height="30" as="geometry"/>
                </mxCell>
                <mxCell id="JAkc_wVmphxXwERZIPBz-194" value="" style="rounded=0;whiteSpace=wrap;html=1;labelBackgroundColor=none;labelBorderColor=#33FF33;pointerEvents=1;fontFamily=Helvetica;fontSize=18;fontColor=default;startSize=0;strokeColor=#008A00;fillColor=#FFFFFF;gradientColor=none;" vertex="1" parent="WpOPuQKkbROMgz7XWDDO-1">
                    <mxGeometry x="180" y="630" width="120" height="160" as="geometry"/>
                </mxCell>
                <mxCell id="JAkc_wVmphxXwERZIPBz-195" value="&lt;font style=&quot;font-size: 14px&quot;&gt;&lt;b&gt;Nguyễn văn A&lt;/b&gt;&lt;/font&gt;" style="text;html=1;strokeColor=none;fillColor=none;align=center;verticalAlign=middle;whiteSpace=wrap;rounded=0;labelBackgroundColor=none;labelBorderColor=none;pointerEvents=1;fontFamily=Helvetica;fontSize=18;fontColor=#02042A;startSize=0;" vertex="1" parent="WpOPuQKkbROMgz7XWDDO-1">
                    <mxGeometry x="180" y="630" width="120" height="30" as="geometry"/>
                </mxCell>
                <mxCell id="JAkc_wVmphxXwERZIPBz-196" value="&lt;font style=&quot;font-size: 13px&quot;&gt;Mã số nhân viên :1&lt;/font&gt;" style="text;html=1;strokeColor=none;fillColor=none;align=center;verticalAlign=middle;whiteSpace=wrap;rounded=0;labelBackgroundColor=none;labelBorderColor=none;pointerEvents=1;fontFamily=Helvetica;fontSize=18;fontColor=#02042A;startSize=0;" vertex="1" parent="WpOPuQKkbROMgz7XWDDO-1">
                    <mxGeometry x="180" y="660" width="120" height="30" as="geometry"/>
                </mxCell>
                <mxCell id="JAkc_wVmphxXwERZIPBz-197" value="&lt;font style=&quot;font-size: 13px&quot;&gt;Hệ số lương: 1.2&lt;/font&gt;" style="text;html=1;strokeColor=none;fillColor=none;align=center;verticalAlign=middle;whiteSpace=wrap;rounded=0;labelBackgroundColor=none;labelBorderColor=none;pointerEvents=1;fontFamily=Helvetica;fontSize=18;fontColor=#02042A;startSize=0;" vertex="1" parent="WpOPuQKkbROMgz7XWDDO-1">
                    <mxGeometry x="180" y="690" width="120" height="30" as="geometry"/>
                </mxCell>
                <mxCell id="JAkc_wVmphxXwERZIPBz-198" value="&lt;font style=&quot;font-size: 13px&quot;&gt;Số giờ làm thêm: 3&lt;/font&gt;" style="text;html=1;strokeColor=none;fillColor=none;align=center;verticalAlign=middle;whiteSpace=wrap;rounded=0;labelBackgroundColor=none;labelBorderColor=none;pointerEvents=1;fontFamily=Helvetica;fontSize=18;fontColor=#02042A;startSize=0;" vertex="1" parent="WpOPuQKkbROMgz7XWDDO-1">
                    <mxGeometry x="180" y="720" width="120" height="30" as="geometry"/>
                </mxCell>
                <mxCell id="JAkc_wVmphxXwERZIPBz-199" value="&lt;font style=&quot;font-size: 13px&quot;&gt;Lương: 960000&lt;/font&gt;" style="text;html=1;strokeColor=none;fillColor=none;align=center;verticalAlign=middle;whiteSpace=wrap;rounded=0;labelBackgroundColor=none;labelBorderColor=none;pointerEvents=1;fontFamily=Helvetica;fontSize=18;fontColor=#02042A;startSize=0;" vertex="1" parent="WpOPuQKkbROMgz7XWDDO-1">
                    <mxGeometry x="180" y="750" width="120" height="30" as="geometry"/>
                </mxCell>
                <mxCell id="JAkc_wVmphxXwERZIPBz-200" value="" style="rounded=0;whiteSpace=wrap;html=1;labelBackgroundColor=none;labelBorderColor=#33FF33;pointerEvents=1;fontFamily=Helvetica;fontSize=18;fontColor=default;startSize=0;strokeColor=#008A00;fillColor=#FFFFFF;gradientColor=none;" vertex="1" parent="WpOPuQKkbROMgz7XWDDO-1">
                    <mxGeometry x="310" y="630" width="120" height="160" as="geometry"/>
                </mxCell>
                <mxCell id="JAkc_wVmphxXwERZIPBz-201" value="&lt;font style=&quot;font-size: 14px&quot;&gt;&lt;b&gt;Nguyễn văn A&lt;/b&gt;&lt;/font&gt;" style="text;html=1;strokeColor=none;fillColor=none;align=center;verticalAlign=middle;whiteSpace=wrap;rounded=0;labelBackgroundColor=none;labelBorderColor=none;pointerEvents=1;fontFamily=Helvetica;fontSize=18;fontColor=#02042A;startSize=0;" vertex="1" parent="WpOPuQKkbROMgz7XWDDO-1">
                    <mxGeometry x="310" y="630" width="120" height="30" as="geometry"/>
                </mxCell>
                <mxCell id="JAkc_wVmphxXwERZIPBz-202" value="&lt;font style=&quot;font-size: 13px&quot;&gt;Mã số nhân viên :1&lt;/font&gt;" style="text;html=1;strokeColor=none;fillColor=none;align=center;verticalAlign=middle;whiteSpace=wrap;rounded=0;labelBackgroundColor=none;labelBorderColor=none;pointerEvents=1;fontFamily=Helvetica;fontSize=18;fontColor=#02042A;startSize=0;" vertex="1" parent="WpOPuQKkbROMgz7XWDDO-1">
                    <mxGeometry x="310" y="660" width="120" height="30" as="geometry"/>
                </mxCell>
                <mxCell id="JAkc_wVmphxXwERZIPBz-203" value="&lt;font style=&quot;font-size: 13px&quot;&gt;Hệ số lương: 1.2&lt;/font&gt;" style="text;html=1;strokeColor=none;fillColor=none;align=center;verticalAlign=middle;whiteSpace=wrap;rounded=0;labelBackgroundColor=none;labelBorderColor=none;pointerEvents=1;fontFamily=Helvetica;fontSize=18;fontColor=#02042A;startSize=0;" vertex="1" parent="WpOPuQKkbROMgz7XWDDO-1">
                    <mxGeometry x="310" y="690" width="120" height="30" as="geometry"/>
                </mxCell>
                <mxCell id="JAkc_wVmphxXwERZIPBz-204" value="&lt;font style=&quot;font-size: 13px&quot;&gt;Số giờ làm thêm: 3&lt;/font&gt;" style="text;html=1;strokeColor=none;fillColor=none;align=center;verticalAlign=middle;whiteSpace=wrap;rounded=0;labelBackgroundColor=none;labelBorderColor=none;pointerEvents=1;fontFamily=Helvetica;fontSize=18;fontColor=#02042A;startSize=0;" vertex="1" parent="WpOPuQKkbROMgz7XWDDO-1">
                    <mxGeometry x="310" y="720" width="120" height="30" as="geometry"/>
                </mxCell>
                <mxCell id="JAkc_wVmphxXwERZIPBz-205" value="&lt;font style=&quot;font-size: 13px&quot;&gt;Lương: 960000&lt;/font&gt;" style="text;html=1;strokeColor=none;fillColor=none;align=center;verticalAlign=middle;whiteSpace=wrap;rounded=0;labelBackgroundColor=none;labelBorderColor=none;pointerEvents=1;fontFamily=Helvetica;fontSize=18;fontColor=#02042A;startSize=0;" vertex="1" parent="WpOPuQKkbROMgz7XWDDO-1">
                    <mxGeometry x="310" y="750" width="120" height="30" as="geometry"/>
                </mxCell>
                <mxCell id="JAkc_wVmphxXwERZIPBz-206" value="" style="rounded=0;whiteSpace=wrap;html=1;labelBackgroundColor=none;labelBorderColor=#33FF33;pointerEvents=1;fontFamily=Helvetica;fontSize=18;fontColor=default;startSize=0;strokeColor=#008A00;fillColor=#FFFFFF;gradientColor=none;" vertex="1" parent="WpOPuQKkbROMgz7XWDDO-1">
                    <mxGeometry x="440" y="630" width="120" height="160" as="geometry"/>
                </mxCell>
                <mxCell id="JAkc_wVmphxXwERZIPBz-207" value="&lt;font style=&quot;font-size: 14px&quot;&gt;&lt;b&gt;Nguyễn văn A&lt;/b&gt;&lt;/font&gt;" style="text;html=1;strokeColor=none;fillColor=none;align=center;verticalAlign=middle;whiteSpace=wrap;rounded=0;labelBackgroundColor=none;labelBorderColor=none;pointerEvents=1;fontFamily=Helvetica;fontSize=18;fontColor=#02042A;startSize=0;" vertex="1" parent="WpOPuQKkbROMgz7XWDDO-1">
                    <mxGeometry x="440" y="630" width="120" height="30" as="geometry"/>
                </mxCell>
                <mxCell id="JAkc_wVmphxXwERZIPBz-208" value="&lt;font style=&quot;font-size: 13px&quot;&gt;Mã số nhân viên :1&lt;/font&gt;" style="text;html=1;strokeColor=none;fillColor=none;align=center;verticalAlign=middle;whiteSpace=wrap;rounded=0;labelBackgroundColor=none;labelBorderColor=none;pointerEvents=1;fontFamily=Helvetica;fontSize=18;fontColor=#02042A;startSize=0;" vertex="1" parent="WpOPuQKkbROMgz7XWDDO-1">
                    <mxGeometry x="440" y="660" width="120" height="30" as="geometry"/>
                </mxCell>
                <mxCell id="JAkc_wVmphxXwERZIPBz-209" value="&lt;font style=&quot;font-size: 13px&quot;&gt;Hệ số lương: 1.2&lt;/font&gt;" style="text;html=1;strokeColor=none;fillColor=none;align=center;verticalAlign=middle;whiteSpace=wrap;rounded=0;labelBackgroundColor=none;labelBorderColor=none;pointerEvents=1;fontFamily=Helvetica;fontSize=18;fontColor=#02042A;startSize=0;" vertex="1" parent="WpOPuQKkbROMgz7XWDDO-1">
                    <mxGeometry x="440" y="690" width="120" height="30" as="geometry"/>
                </mxCell>
                <mxCell id="JAkc_wVmphxXwERZIPBz-210" value="&lt;font style=&quot;font-size: 13px&quot;&gt;Số giờ làm thêm: 3&lt;/font&gt;" style="text;html=1;strokeColor=none;fillColor=none;align=center;verticalAlign=middle;whiteSpace=wrap;rounded=0;labelBackgroundColor=none;labelBorderColor=none;pointerEvents=1;fontFamily=Helvetica;fontSize=18;fontColor=#02042A;startSize=0;" vertex="1" parent="WpOPuQKkbROMgz7XWDDO-1">
                    <mxGeometry x="440" y="720" width="120" height="30" as="geometry"/>
                </mxCell>
                <mxCell id="JAkc_wVmphxXwERZIPBz-211" value="&lt;font style=&quot;font-size: 13px&quot;&gt;Lương: 960000&lt;/font&gt;" style="text;html=1;strokeColor=none;fillColor=none;align=center;verticalAlign=middle;whiteSpace=wrap;rounded=0;labelBackgroundColor=none;labelBorderColor=none;pointerEvents=1;fontFamily=Helvetica;fontSize=18;fontColor=#02042A;startSize=0;" vertex="1" parent="WpOPuQKkbROMgz7XWDDO-1">
                    <mxGeometry x="440" y="750" width="120" height="30" as="geometry"/>
                </mxCell>
                <mxCell id="etFZlFUJOmSIMDE1SJl7-0" value="Click chuyển về danh sách nhân viên" style="whiteSpace=wrap;html=1;rounded=0;labelBackgroundColor=none;labelBorderColor=none;pointerEvents=1;fontFamily=Helvetica;fontSize=13;fontColor=#000000;startSize=0;strokeColor=#008A00;fillColor=#FFFFFF;gradientColor=none;" vertex="1" parent="WpOPuQKkbROMgz7XWDDO-1">
                    <mxGeometry x="-185" y="60" width="120" height="60" as="geometry"/>
                </mxCell>
            </root>
        </mxGraphModel>
    </diagram>
    <diagram id="LSEPKmt9Gwt6bl2MA0Vu" name="Page-4">
        <mxGraphModel dx="2407" dy="776" grid="1" gridSize="10" guides="1" tooltips="1" connect="1" arrows="1" fold="1" page="1" pageScale="1" pageWidth="850" pageHeight="1100" math="0" shadow="0">
            <root>
                <mxCell id="BC7QXAPfAEfe9qyIypdf-0"/>
                <mxCell id="BC7QXAPfAEfe9qyIypdf-1" parent="BC7QXAPfAEfe9qyIypdf-0"/>
                <mxCell id="Yn9aiMcjM6NO_7YAfa8L-0" value="" style="rounded=0;whiteSpace=wrap;html=1;fillColor=#b1ddf0;strokeColor=#039E18;" vertex="1" parent="BC7QXAPfAEfe9qyIypdf-1">
                    <mxGeometry width="850" height="620" as="geometry"/>
                </mxCell>
                <mxCell id="dvNzPwe38d71B6SJylQy-0" value="" style="rounded=0;whiteSpace=wrap;html=1;fillColor=#6E6E6E;fontColor=#ffffff;strokeColor=#314354;" vertex="1" parent="BC7QXAPfAEfe9qyIypdf-1">
                    <mxGeometry y="430" width="850" height="190" as="geometry"/>
                </mxCell>
                <mxCell id="1TA1K7M13N_sbTRc4QBT-0" value="" style="rounded=0;whiteSpace=wrap;html=1;fillColor=#6E6E6E;fontColor=#ffffff;strokeColor=#314354;" vertex="1" parent="BC7QXAPfAEfe9qyIypdf-1">
                    <mxGeometry width="850" height="60" as="geometry"/>
                </mxCell>
                <mxCell id="NxibB2z07t03cu7bTeHF-0" value="logo" style="whiteSpace=wrap;html=1;aspect=fixed;" vertex="1" parent="BC7QXAPfAEfe9qyIypdf-1">
                    <mxGeometry x="50" y="10" width="40" height="40" as="geometry"/>
                </mxCell>
                <mxCell id="NxibB2z07t03cu7bTeHF-1" value="Nhân viên" style="text;strokeColor=none;fillColor=none;align=left;verticalAlign=top;spacingLeft=4;spacingRight=4;overflow=hidden;rotatable=0;points=[[0,0.5],[1,0.5]];portConstraint=eastwest;" vertex="1" parent="BC7QXAPfAEfe9qyIypdf-1">
                    <mxGeometry x="130" y="17" width="70" height="26" as="geometry"/>
                </mxCell>
                <mxCell id="NxibB2z07t03cu7bTeHF-2" value="Phòng Ban" style="text;strokeColor=none;fillColor=none;align=left;verticalAlign=top;spacingLeft=4;spacingRight=4;overflow=hidden;rotatable=0;points=[[0,0.5],[1,0.5]];portConstraint=eastwest;" vertex="1" parent="BC7QXAPfAEfe9qyIypdf-1">
                    <mxGeometry x="230" y="17" width="80" height="26" as="geometry"/>
                </mxCell>
                <mxCell id="NxibB2z07t03cu7bTeHF-3" value="Bảng Lương" style="text;strokeColor=none;fillColor=none;align=left;verticalAlign=top;spacingLeft=4;spacingRight=4;overflow=hidden;rotatable=0;points=[[0,0.5],[1,0.5]];portConstraint=eastwest;" vertex="1" parent="BC7QXAPfAEfe9qyIypdf-1">
                    <mxGeometry x="330" y="17" width="80" height="26" as="geometry"/>
                </mxCell>
                <mxCell id="NxibB2z07t03cu7bTeHF-4" value="" style="whiteSpace=wrap;html=1;aspect=fixed;fillColor=#eeeeee;strokeColor=#36393d;" vertex="1" parent="BC7QXAPfAEfe9qyIypdf-1">
                    <mxGeometry x="110" y="20" width="20" height="20" as="geometry"/>
                </mxCell>
                <mxCell id="NxibB2z07t03cu7bTeHF-5" value="" style="whiteSpace=wrap;html=1;aspect=fixed;fillColor=#eeeeee;strokeColor=#36393d;" vertex="1" parent="BC7QXAPfAEfe9qyIypdf-1">
                    <mxGeometry x="210" y="20" width="20" height="20" as="geometry"/>
                </mxCell>
                <mxCell id="NxibB2z07t03cu7bTeHF-6" value="" style="whiteSpace=wrap;html=1;aspect=fixed;fillColor=#eeeeee;strokeColor=#36393d;" vertex="1" parent="BC7QXAPfAEfe9qyIypdf-1">
                    <mxGeometry x="310" y="20" width="20" height="20" as="geometry"/>
                </mxCell>
                <mxCell id="NxibB2z07t03cu7bTeHF-43" value="&lt;font style=&quot;background-color: rgb(110 , 110 , 110) ; font-size: 12px&quot; color=&quot;#ffffff&quot;&gt;@ Copyright 2018 Ristorante Con Fusion&lt;/font&gt;" style="text;html=1;strokeColor=none;fillColor=none;align=center;verticalAlign=middle;whiteSpace=wrap;rounded=0;labelBackgroundColor=none;fontSize=17;fontColor=#000000;" vertex="1" parent="BC7QXAPfAEfe9qyIypdf-1">
                    <mxGeometry x="270" y="570" width="295" height="30" as="geometry"/>
                </mxCell>
                <mxCell id="NxibB2z07t03cu7bTeHF-44" value="&lt;h5 style=&quot;box-sizing: border-box ; margin-top: 0px ; margin-bottom: 0.5rem ; font-weight: 500 ; line-height: 1.2 ; font-size: 13px&quot;&gt;&lt;font style=&quot;background-color: rgb(110 , 110 , 110) ; font-size: 13px&quot;&gt;Our Address&lt;/font&gt;&lt;/h5&gt;&lt;address style=&quot;box-sizing: border-box ; margin-bottom: 1rem ; font-style: normal ; line-height: inherit ; font-size: 13px&quot;&gt;&lt;font style=&quot;background-color: rgb(110 , 110 , 110) ; font-size: 13px&quot;&gt;121, Clear Water Bay Road&lt;br style=&quot;box-sizing: border-box&quot;&gt;Clear Water Bay, Kowloon&lt;br style=&quot;box-sizing: border-box&quot;&gt;HONG KONG&lt;br style=&quot;box-sizing: border-box&quot;&gt;&lt;span class=&quot;fa fa-phone fa-lg&quot; style=&quot;box-sizing: border-box ; display: inline-block ; font-stretch: normal ; line-height: 0.75em ; font-family: &amp;quot;fontawesome&amp;quot; ; vertical-align: -15%&quot;&gt;&lt;/span&gt;+852 1234 5678&lt;br style=&quot;box-sizing: border-box&quot;&gt;&lt;span class=&quot;fa fa-fax fa-lg&quot; style=&quot;box-sizing: border-box ; display: inline-block ; font-stretch: normal ; line-height: 0.75em ; font-family: &amp;quot;fontawesome&amp;quot; ; vertical-align: -15%&quot;&gt;&lt;/span&gt;+852 8765 4321&lt;br style=&quot;box-sizing: border-box&quot;&gt;&lt;span class=&quot;fa fa-envelope fa-lg&quot; style=&quot;box-sizing: border-box ; display: inline-block ; font-stretch: normal ; line-height: 0.75em ; font-family: &amp;quot;fontawesome&amp;quot; ; vertical-align: -15%&quot;&gt;&lt;/span&gt;&lt;a href=&quot;mailto:confusion@food.net&quot; style=&quot;box-sizing: border-box ; color: rgb(13 , 110 , 253)&quot;&gt;Thisamazingcompany@food.net&lt;/a&gt;&lt;/font&gt;&lt;/address&gt;" style="text;html=1;strokeColor=none;fillColor=none;align=center;verticalAlign=middle;whiteSpace=wrap;rounded=0;labelBackgroundColor=#6E6E6E;fontSize=14;fontColor=#FFFFFF;" vertex="1" parent="BC7QXAPfAEfe9qyIypdf-1">
                    <mxGeometry x="50" y="450" width="170" height="120" as="geometry"/>
                </mxCell>
                <mxCell id="NxibB2z07t03cu7bTeHF-45" value="&lt;span style=&quot;background-color: rgb(189 , 189 , 189) ; font-size: 21px&quot;&gt;G&lt;/span&gt;" style="shape=ext;double=1;whiteSpace=wrap;html=1;aspect=fixed;labelBackgroundColor=#FFFFFF;fontSize=12;fontColor=#FFFFFF;strokeColor=#039E18;strokeWidth=1;fillColor=#BDBDBD;" vertex="1" parent="BC7QXAPfAEfe9qyIypdf-1">
                    <mxGeometry x="600" y="495" width="30" height="30" as="geometry"/>
                </mxCell>
                <mxCell id="NxibB2z07t03cu7bTeHF-46" value="&lt;span style=&quot;background-color: rgb(189 , 189 , 189) ; font-size: 21px&quot;&gt;F&lt;/span&gt;" style="shape=ext;double=1;whiteSpace=wrap;html=1;aspect=fixed;labelBackgroundColor=#FFFFFF;fontSize=12;fontColor=#FFFFFF;strokeColor=#039E18;strokeWidth=1;fillColor=#BDBDBD;" vertex="1" parent="BC7QXAPfAEfe9qyIypdf-1">
                    <mxGeometry x="630" y="495" width="30" height="30" as="geometry"/>
                </mxCell>
                <mxCell id="NxibB2z07t03cu7bTeHF-47" value="&lt;span style=&quot;background-color: rgb(189 , 189 , 189) ; font-size: 21px&quot;&gt;IN&lt;/span&gt;" style="shape=ext;double=1;whiteSpace=wrap;html=1;aspect=fixed;labelBackgroundColor=#FFFFFF;fontSize=12;fontColor=#FFFFFF;strokeColor=#039E18;strokeWidth=1;fillColor=#BDBDBD;" vertex="1" parent="BC7QXAPfAEfe9qyIypdf-1">
                    <mxGeometry x="660" y="495" width="30" height="30" as="geometry"/>
                </mxCell>
                <mxCell id="NxibB2z07t03cu7bTeHF-48" value="&lt;span style=&quot;font-size: 21px ; background-color: rgb(189 , 189 , 189)&quot;&gt;T&lt;/span&gt;" style="shape=ext;double=1;whiteSpace=wrap;html=1;aspect=fixed;labelBackgroundColor=#FFFFFF;fontSize=12;fontColor=#FFFFFF;strokeColor=#039E18;strokeWidth=1;fillColor=#BDBDBD;" vertex="1" parent="BC7QXAPfAEfe9qyIypdf-1">
                    <mxGeometry x="690" y="495" width="30" height="30" as="geometry"/>
                </mxCell>
                <mxCell id="NxibB2z07t03cu7bTeHF-49" value="&lt;span style=&quot;font-size: 21px ; background-color: rgb(189 , 189 , 189)&quot;&gt;Y&lt;/span&gt;" style="shape=ext;double=1;whiteSpace=wrap;html=1;aspect=fixed;labelBackgroundColor=#FFFFFF;fontSize=12;fontColor=#FFFFFF;strokeColor=#039E18;strokeWidth=1;fillColor=#BDBDBD;" vertex="1" parent="BC7QXAPfAEfe9qyIypdf-1">
                    <mxGeometry x="720" y="495" width="30" height="30" as="geometry"/>
                </mxCell>
                <mxCell id="4RrjqSdtluSYqqYLKjJO-1" value="" style="edgeStyle=none;html=1;fontFamily=Helvetica;fontSize=13;fontColor=#000000;startSize=0;" edge="1" parent="BC7QXAPfAEfe9qyIypdf-1" source="fWEUl2ONAqcwETvROtru-0" target="4RrjqSdtluSYqqYLKjJO-0">
                    <mxGeometry relative="1" as="geometry"/>
                </mxCell>
                <mxCell id="fWEUl2ONAqcwETvROtru-0" value="&lt;span style=&quot;font-size: 16px;&quot;&gt;&lt;font color=&quot;#38afff&quot; style=&quot;font-size: 16px;&quot;&gt;Nhân viên&lt;/font&gt;&lt;font color=&quot;#000000&quot; style=&quot;font-size: 16px;&quot;&gt; / phòng ban&lt;/font&gt;&lt;/span&gt;" style="text;html=1;strokeColor=none;fillColor=none;align=center;verticalAlign=middle;whiteSpace=wrap;rounded=0;strokeWidth=4;fontSize=16;" vertex="1" parent="BC7QXAPfAEfe9qyIypdf-1">
                    <mxGeometry x="40" y="70" width="190" height="20" as="geometry"/>
                </mxCell>
                <mxCell id="m8xZesMiRiwE1xC4RhA9-0" value="&lt;font color=&quot;#000000&quot; style=&quot;font-size: 23px;&quot;&gt;&lt;b style=&quot;font-size: 23px;&quot;&gt;Phòng Ban&lt;/b&gt;&lt;/font&gt;" style="text;html=1;strokeColor=none;fillColor=none;align=center;verticalAlign=middle;whiteSpace=wrap;rounded=0;strokeWidth=4;fontSize=23;" vertex="1" parent="BC7QXAPfAEfe9qyIypdf-1">
                    <mxGeometry x="50" y="110" width="140" height="40" as="geometry"/>
                </mxCell>
                <mxCell id="m8xZesMiRiwE1xC4RhA9-1" value="" style="rounded=0;whiteSpace=wrap;html=1;labelBackgroundColor=none;labelBorderColor=none;pointerEvents=1;fontFamily=Helvetica;fontSize=16;fontColor=#02042A;startSize=0;strokeColor=#008A00;fillColor=#FFFFFF;gradientColor=none;" vertex="1" parent="BC7QXAPfAEfe9qyIypdf-1">
                    <mxGeometry x="55" y="240" width="135" height="70" as="geometry"/>
                </mxCell>
                <mxCell id="m8xZesMiRiwE1xC4RhA9-2" value="&lt;b&gt;Sale&lt;/b&gt;" style="text;html=1;strokeColor=none;fillColor=none;align=center;verticalAlign=middle;whiteSpace=wrap;rounded=0;labelBackgroundColor=none;labelBorderColor=none;pointerEvents=1;fontFamily=Helvetica;fontSize=16;fontColor=#02042A;startSize=0;" vertex="1" parent="BC7QXAPfAEfe9qyIypdf-1">
                    <mxGeometry x="50" y="240" width="60" height="30" as="geometry"/>
                </mxCell>
                <mxCell id="m8xZesMiRiwE1xC4RhA9-3" value="&lt;font style=&quot;font-size: 12px&quot;&gt;Số lượng nhân viên: 1&lt;/font&gt;" style="text;html=1;strokeColor=none;fillColor=none;align=center;verticalAlign=middle;whiteSpace=wrap;rounded=0;labelBackgroundColor=none;labelBorderColor=none;pointerEvents=1;fontFamily=Helvetica;fontSize=17;fontColor=#02042A;startSize=0;" vertex="1" parent="BC7QXAPfAEfe9qyIypdf-1">
                    <mxGeometry x="50" y="270" width="142.5" height="30" as="geometry"/>
                </mxCell>
                <mxCell id="m8xZesMiRiwE1xC4RhA9-31" value="" style="rounded=0;whiteSpace=wrap;html=1;labelBackgroundColor=none;labelBorderColor=none;pointerEvents=1;fontFamily=Helvetica;fontSize=16;fontColor=#02042A;startSize=0;strokeColor=#008A00;fillColor=#FFFFFF;gradientColor=none;" vertex="1" parent="BC7QXAPfAEfe9qyIypdf-1">
                    <mxGeometry x="197.5" y="240" width="135" height="70" as="geometry"/>
                </mxCell>
                <mxCell id="m8xZesMiRiwE1xC4RhA9-32" value="&lt;b&gt;Sale&lt;/b&gt;" style="text;html=1;strokeColor=none;fillColor=none;align=center;verticalAlign=middle;whiteSpace=wrap;rounded=0;labelBackgroundColor=none;labelBorderColor=none;pointerEvents=1;fontFamily=Helvetica;fontSize=16;fontColor=#02042A;startSize=0;" vertex="1" parent="BC7QXAPfAEfe9qyIypdf-1">
                    <mxGeometry x="192.5" y="240" width="60" height="30" as="geometry"/>
                </mxCell>
                <mxCell id="m8xZesMiRiwE1xC4RhA9-33" value="&lt;font style=&quot;font-size: 12px&quot;&gt;Số lượng nhân viên: 1&lt;/font&gt;" style="text;html=1;strokeColor=none;fillColor=none;align=center;verticalAlign=middle;whiteSpace=wrap;rounded=0;labelBackgroundColor=none;labelBorderColor=none;pointerEvents=1;fontFamily=Helvetica;fontSize=17;fontColor=#02042A;startSize=0;" vertex="1" parent="BC7QXAPfAEfe9qyIypdf-1">
                    <mxGeometry x="192.5" y="270" width="142.5" height="30" as="geometry"/>
                </mxCell>
                <mxCell id="m8xZesMiRiwE1xC4RhA9-34" value="" style="rounded=0;whiteSpace=wrap;html=1;labelBackgroundColor=none;labelBorderColor=none;pointerEvents=1;fontFamily=Helvetica;fontSize=16;fontColor=#02042A;startSize=0;strokeColor=#008A00;fillColor=#FFFFFF;gradientColor=none;" vertex="1" parent="BC7QXAPfAEfe9qyIypdf-1">
                    <mxGeometry x="340" y="240" width="135" height="70" as="geometry"/>
                </mxCell>
                <mxCell id="m8xZesMiRiwE1xC4RhA9-35" value="&lt;b&gt;Sale&lt;/b&gt;" style="text;html=1;strokeColor=none;fillColor=none;align=center;verticalAlign=middle;whiteSpace=wrap;rounded=0;labelBackgroundColor=none;labelBorderColor=none;pointerEvents=1;fontFamily=Helvetica;fontSize=16;fontColor=#02042A;startSize=0;" vertex="1" parent="BC7QXAPfAEfe9qyIypdf-1">
                    <mxGeometry x="335" y="240" width="60" height="30" as="geometry"/>
                </mxCell>
                <mxCell id="m8xZesMiRiwE1xC4RhA9-36" value="&lt;font style=&quot;font-size: 12px&quot;&gt;Số lượng nhân viên: 1&lt;/font&gt;" style="text;html=1;strokeColor=none;fillColor=none;align=center;verticalAlign=middle;whiteSpace=wrap;rounded=0;labelBackgroundColor=none;labelBorderColor=none;pointerEvents=1;fontFamily=Helvetica;fontSize=17;fontColor=#02042A;startSize=0;" vertex="1" parent="BC7QXAPfAEfe9qyIypdf-1">
                    <mxGeometry x="335" y="270" width="142.5" height="30" as="geometry"/>
                </mxCell>
                <mxCell id="m8xZesMiRiwE1xC4RhA9-37" value="" style="rounded=0;whiteSpace=wrap;html=1;labelBackgroundColor=none;labelBorderColor=none;pointerEvents=1;fontFamily=Helvetica;fontSize=16;fontColor=#02042A;startSize=0;strokeColor=#008A00;fillColor=#FFFFFF;gradientColor=none;" vertex="1" parent="BC7QXAPfAEfe9qyIypdf-1">
                    <mxGeometry x="482.5" y="240" width="135" height="70" as="geometry"/>
                </mxCell>
                <mxCell id="m8xZesMiRiwE1xC4RhA9-38" value="&lt;b&gt;Sale&lt;/b&gt;" style="text;html=1;strokeColor=none;fillColor=none;align=center;verticalAlign=middle;whiteSpace=wrap;rounded=0;labelBackgroundColor=none;labelBorderColor=none;pointerEvents=1;fontFamily=Helvetica;fontSize=16;fontColor=#02042A;startSize=0;" vertex="1" parent="BC7QXAPfAEfe9qyIypdf-1">
                    <mxGeometry x="477.5" y="240" width="60" height="30" as="geometry"/>
                </mxCell>
                <mxCell id="m8xZesMiRiwE1xC4RhA9-39" value="&lt;font style=&quot;font-size: 12px&quot;&gt;Số lượng nhân viên: 1&lt;/font&gt;" style="text;html=1;strokeColor=none;fillColor=none;align=center;verticalAlign=middle;whiteSpace=wrap;rounded=0;labelBackgroundColor=none;labelBorderColor=none;pointerEvents=1;fontFamily=Helvetica;fontSize=17;fontColor=#02042A;startSize=0;" vertex="1" parent="BC7QXAPfAEfe9qyIypdf-1">
                    <mxGeometry x="477.5" y="270" width="142.5" height="30" as="geometry"/>
                </mxCell>
                <mxCell id="m8xZesMiRiwE1xC4RhA9-40" value="" style="rounded=0;whiteSpace=wrap;html=1;labelBackgroundColor=none;labelBorderColor=none;pointerEvents=1;fontFamily=Helvetica;fontSize=16;fontColor=#02042A;startSize=0;strokeColor=#008A00;fillColor=#FFFFFF;gradientColor=none;" vertex="1" parent="BC7QXAPfAEfe9qyIypdf-1">
                    <mxGeometry x="625" y="240" width="135" height="70" as="geometry"/>
                </mxCell>
                <mxCell id="m8xZesMiRiwE1xC4RhA9-41" value="&lt;b&gt;Sale&lt;/b&gt;" style="text;html=1;strokeColor=none;fillColor=none;align=center;verticalAlign=middle;whiteSpace=wrap;rounded=0;labelBackgroundColor=none;labelBorderColor=none;pointerEvents=1;fontFamily=Helvetica;fontSize=16;fontColor=#02042A;startSize=0;" vertex="1" parent="BC7QXAPfAEfe9qyIypdf-1">
                    <mxGeometry x="620" y="240" width="60" height="30" as="geometry"/>
                </mxCell>
                <mxCell id="m8xZesMiRiwE1xC4RhA9-42" value="&lt;font style=&quot;font-size: 12px&quot;&gt;Số lượng nhân viên: 1&lt;/font&gt;" style="text;html=1;strokeColor=none;fillColor=none;align=center;verticalAlign=middle;whiteSpace=wrap;rounded=0;labelBackgroundColor=none;labelBorderColor=none;pointerEvents=1;fontFamily=Helvetica;fontSize=17;fontColor=#02042A;startSize=0;" vertex="1" parent="BC7QXAPfAEfe9qyIypdf-1">
                    <mxGeometry x="620" y="270" width="142.5" height="30" as="geometry"/>
                </mxCell>
                <mxCell id="4RrjqSdtluSYqqYLKjJO-0" value="Chuyển về danh sách nhân viên" style="whiteSpace=wrap;html=1;rounded=0;labelBackgroundColor=none;labelBorderColor=none;pointerEvents=1;fontFamily=Helvetica;fontSize=13;fontColor=#000000;startSize=0;strokeColor=#008A00;fillColor=#FFFFFF;gradientColor=none;" vertex="1" parent="BC7QXAPfAEfe9qyIypdf-1">
                    <mxGeometry x="-195" y="50" width="125" height="60" as="geometry"/>
                </mxCell>
            </root>
        </mxGraphModel>
    </diagram>
    <diagram id="rE8AA-79zeMBAwPMxlHa" name="Page-5">
        <mxGraphModel dx="2407" dy="776" grid="1" gridSize="10" guides="1" tooltips="1" connect="1" arrows="1" fold="1" page="1" pageScale="1" pageWidth="850" pageHeight="1100" math="0" shadow="0">
            <root>
                <mxCell id="Q_epyf2goezy_2mvQNFF-0"/>
                <mxCell id="Q_epyf2goezy_2mvQNFF-1" parent="Q_epyf2goezy_2mvQNFF-0"/>
                <mxCell id="Id8p1U9ewkKhgI0qa5A1-0" value="" style="rounded=0;whiteSpace=wrap;html=1;fillColor=#b1ddf0;strokeColor=#039E18;" vertex="1" parent="Q_epyf2goezy_2mvQNFF-1">
                    <mxGeometry width="850" height="620" as="geometry"/>
                </mxCell>
                <mxCell id="Id8p1U9ewkKhgI0qa5A1-1" value="" style="rounded=0;whiteSpace=wrap;html=1;fillColor=#6E6E6E;fontColor=#ffffff;strokeColor=#314354;" vertex="1" parent="Q_epyf2goezy_2mvQNFF-1">
                    <mxGeometry y="430" width="850" height="190" as="geometry"/>
                </mxCell>
                <mxCell id="Id8p1U9ewkKhgI0qa5A1-2" value="" style="rounded=0;whiteSpace=wrap;html=1;fillColor=#6E6E6E;fontColor=#ffffff;strokeColor=#314354;" vertex="1" parent="Q_epyf2goezy_2mvQNFF-1">
                    <mxGeometry width="850" height="60" as="geometry"/>
                </mxCell>
                <mxCell id="cDfVkbfoky6MioHYXXf8-0" value="" style="rounded=0;whiteSpace=wrap;html=1;fillColor=#b1ddf0;strokeColor=#039E18;" vertex="1" parent="Q_epyf2goezy_2mvQNFF-1">
                    <mxGeometry width="850" height="620" as="geometry"/>
                </mxCell>
                <mxCell id="cDfVkbfoky6MioHYXXf8-1" value="" style="rounded=0;whiteSpace=wrap;html=1;fillColor=#6E6E6E;fontColor=#ffffff;strokeColor=#314354;" vertex="1" parent="Q_epyf2goezy_2mvQNFF-1">
                    <mxGeometry y="430" width="850" height="190" as="geometry"/>
                </mxCell>
                <mxCell id="cDfVkbfoky6MioHYXXf8-2" value="" style="rounded=0;whiteSpace=wrap;html=1;fillColor=#6E6E6E;fontColor=#ffffff;strokeColor=#314354;" vertex="1" parent="Q_epyf2goezy_2mvQNFF-1">
                    <mxGeometry width="850" height="60" as="geometry"/>
                </mxCell>
                <mxCell id="cDfVkbfoky6MioHYXXf8-3" value="logo" style="whiteSpace=wrap;html=1;aspect=fixed;" vertex="1" parent="Q_epyf2goezy_2mvQNFF-1">
                    <mxGeometry x="50" y="10" width="40" height="40" as="geometry"/>
                </mxCell>
                <mxCell id="cDfVkbfoky6MioHYXXf8-4" value="Nhân viên" style="text;strokeColor=none;fillColor=none;align=left;verticalAlign=top;spacingLeft=4;spacingRight=4;overflow=hidden;rotatable=0;points=[[0,0.5],[1,0.5]];portConstraint=eastwest;" vertex="1" parent="Q_epyf2goezy_2mvQNFF-1">
                    <mxGeometry x="130" y="17" width="70" height="26" as="geometry"/>
                </mxCell>
                <mxCell id="cDfVkbfoky6MioHYXXf8-5" value="Phòng Ban" style="text;strokeColor=none;fillColor=none;align=left;verticalAlign=top;spacingLeft=4;spacingRight=4;overflow=hidden;rotatable=0;points=[[0,0.5],[1,0.5]];portConstraint=eastwest;" vertex="1" parent="Q_epyf2goezy_2mvQNFF-1">
                    <mxGeometry x="230" y="17" width="80" height="26" as="geometry"/>
                </mxCell>
                <mxCell id="cDfVkbfoky6MioHYXXf8-6" value="Bảng Lương" style="text;strokeColor=none;fillColor=none;align=left;verticalAlign=top;spacingLeft=4;spacingRight=4;overflow=hidden;rotatable=0;points=[[0,0.5],[1,0.5]];portConstraint=eastwest;" vertex="1" parent="Q_epyf2goezy_2mvQNFF-1">
                    <mxGeometry x="330" y="17" width="80" height="26" as="geometry"/>
                </mxCell>
                <mxCell id="cDfVkbfoky6MioHYXXf8-7" value="" style="whiteSpace=wrap;html=1;aspect=fixed;fillColor=#eeeeee;strokeColor=#36393d;" vertex="1" parent="Q_epyf2goezy_2mvQNFF-1">
                    <mxGeometry x="110" y="20" width="20" height="20" as="geometry"/>
                </mxCell>
                <mxCell id="cDfVkbfoky6MioHYXXf8-8" value="" style="whiteSpace=wrap;html=1;aspect=fixed;fillColor=#eeeeee;strokeColor=#36393d;" vertex="1" parent="Q_epyf2goezy_2mvQNFF-1">
                    <mxGeometry x="210" y="20" width="20" height="20" as="geometry"/>
                </mxCell>
                <mxCell id="cDfVkbfoky6MioHYXXf8-9" value="" style="whiteSpace=wrap;html=1;aspect=fixed;fillColor=#eeeeee;strokeColor=#36393d;" vertex="1" parent="Q_epyf2goezy_2mvQNFF-1">
                    <mxGeometry x="310" y="20" width="20" height="20" as="geometry"/>
                </mxCell>
                <mxCell id="cDfVkbfoky6MioHYXXf8-10" value="&lt;font style=&quot;background-color: rgb(110 , 110 , 110) ; font-size: 12px&quot; color=&quot;#ffffff&quot;&gt;@ Copyright 2018 Ristorante Con Fusion&lt;/font&gt;" style="text;html=1;strokeColor=none;fillColor=none;align=center;verticalAlign=middle;whiteSpace=wrap;rounded=0;labelBackgroundColor=none;fontSize=17;fontColor=#000000;" vertex="1" parent="Q_epyf2goezy_2mvQNFF-1">
                    <mxGeometry x="270" y="570" width="295" height="30" as="geometry"/>
                </mxCell>
                <mxCell id="cDfVkbfoky6MioHYXXf8-11" value="&lt;h5 style=&quot;box-sizing: border-box ; margin-top: 0px ; margin-bottom: 0.5rem ; font-weight: 500 ; line-height: 1.2 ; font-size: 13px&quot;&gt;&lt;font style=&quot;background-color: rgb(110 , 110 , 110) ; font-size: 13px&quot;&gt;Our Address&lt;/font&gt;&lt;/h5&gt;&lt;address style=&quot;box-sizing: border-box ; margin-bottom: 1rem ; font-style: normal ; line-height: inherit ; font-size: 13px&quot;&gt;&lt;font style=&quot;background-color: rgb(110 , 110 , 110) ; font-size: 13px&quot;&gt;121, Clear Water Bay Road&lt;br style=&quot;box-sizing: border-box&quot;&gt;Clear Water Bay, Kowloon&lt;br style=&quot;box-sizing: border-box&quot;&gt;HONG KONG&lt;br style=&quot;box-sizing: border-box&quot;&gt;&lt;span class=&quot;fa fa-phone fa-lg&quot; style=&quot;box-sizing: border-box ; display: inline-block ; font-stretch: normal ; line-height: 0.75em ; font-family: &amp;quot;fontawesome&amp;quot; ; vertical-align: -15%&quot;&gt;&lt;/span&gt;+852 1234 5678&lt;br style=&quot;box-sizing: border-box&quot;&gt;&lt;span class=&quot;fa fa-fax fa-lg&quot; style=&quot;box-sizing: border-box ; display: inline-block ; font-stretch: normal ; line-height: 0.75em ; font-family: &amp;quot;fontawesome&amp;quot; ; vertical-align: -15%&quot;&gt;&lt;/span&gt;+852 8765 4321&lt;br style=&quot;box-sizing: border-box&quot;&gt;&lt;span class=&quot;fa fa-envelope fa-lg&quot; style=&quot;box-sizing: border-box ; display: inline-block ; font-stretch: normal ; line-height: 0.75em ; font-family: &amp;quot;fontawesome&amp;quot; ; vertical-align: -15%&quot;&gt;&lt;/span&gt;&lt;a href=&quot;mailto:confusion@food.net&quot; style=&quot;box-sizing: border-box ; color: rgb(13 , 110 , 253)&quot;&gt;Thisamazingcompany@food.net&lt;/a&gt;&lt;/font&gt;&lt;/address&gt;" style="text;html=1;strokeColor=none;fillColor=none;align=center;verticalAlign=middle;whiteSpace=wrap;rounded=0;labelBackgroundColor=#6E6E6E;fontSize=14;fontColor=#FFFFFF;" vertex="1" parent="Q_epyf2goezy_2mvQNFF-1">
                    <mxGeometry x="50" y="450" width="170" height="120" as="geometry"/>
                </mxCell>
                <mxCell id="cDfVkbfoky6MioHYXXf8-12" value="&lt;span style=&quot;background-color: rgb(189 , 189 , 189) ; font-size: 21px&quot;&gt;G&lt;/span&gt;" style="shape=ext;double=1;whiteSpace=wrap;html=1;aspect=fixed;labelBackgroundColor=#FFFFFF;fontSize=12;fontColor=#FFFFFF;strokeColor=#039E18;strokeWidth=1;fillColor=#BDBDBD;" vertex="1" parent="Q_epyf2goezy_2mvQNFF-1">
                    <mxGeometry x="600" y="495" width="30" height="30" as="geometry"/>
                </mxCell>
                <mxCell id="cDfVkbfoky6MioHYXXf8-13" value="&lt;span style=&quot;background-color: rgb(189 , 189 , 189) ; font-size: 21px&quot;&gt;F&lt;/span&gt;" style="shape=ext;double=1;whiteSpace=wrap;html=1;aspect=fixed;labelBackgroundColor=#FFFFFF;fontSize=12;fontColor=#FFFFFF;strokeColor=#039E18;strokeWidth=1;fillColor=#BDBDBD;" vertex="1" parent="Q_epyf2goezy_2mvQNFF-1">
                    <mxGeometry x="630" y="495" width="30" height="30" as="geometry"/>
                </mxCell>
                <mxCell id="cDfVkbfoky6MioHYXXf8-14" value="&lt;span style=&quot;background-color: rgb(189 , 189 , 189) ; font-size: 21px&quot;&gt;IN&lt;/span&gt;" style="shape=ext;double=1;whiteSpace=wrap;html=1;aspect=fixed;labelBackgroundColor=#FFFFFF;fontSize=12;fontColor=#FFFFFF;strokeColor=#039E18;strokeWidth=1;fillColor=#BDBDBD;" vertex="1" parent="Q_epyf2goezy_2mvQNFF-1">
                    <mxGeometry x="660" y="495" width="30" height="30" as="geometry"/>
                </mxCell>
                <mxCell id="cDfVkbfoky6MioHYXXf8-15" value="&lt;span style=&quot;font-size: 21px ; background-color: rgb(189 , 189 , 189)&quot;&gt;T&lt;/span&gt;" style="shape=ext;double=1;whiteSpace=wrap;html=1;aspect=fixed;labelBackgroundColor=#FFFFFF;fontSize=12;fontColor=#FFFFFF;strokeColor=#039E18;strokeWidth=1;fillColor=#BDBDBD;" vertex="1" parent="Q_epyf2goezy_2mvQNFF-1">
                    <mxGeometry x="690" y="495" width="30" height="30" as="geometry"/>
                </mxCell>
                <mxCell id="cDfVkbfoky6MioHYXXf8-16" value="&lt;span style=&quot;font-size: 21px ; background-color: rgb(189 , 189 , 189)&quot;&gt;Y&lt;/span&gt;" style="shape=ext;double=1;whiteSpace=wrap;html=1;aspect=fixed;labelBackgroundColor=#FFFFFF;fontSize=12;fontColor=#FFFFFF;strokeColor=#039E18;strokeWidth=1;fillColor=#BDBDBD;" vertex="1" parent="Q_epyf2goezy_2mvQNFF-1">
                    <mxGeometry x="720" y="495" width="30" height="30" as="geometry"/>
                </mxCell>
                <mxCell id="3-nXjN7K8t-1fT9dhURK-1" value="" style="edgeStyle=none;html=1;fontFamily=Helvetica;fontSize=13;fontColor=#000000;startSize=0;" edge="1" parent="Q_epyf2goezy_2mvQNFF-1" source="cDfVkbfoky6MioHYXXf8-17" target="3-nXjN7K8t-1fT9dhURK-0">
                    <mxGeometry relative="1" as="geometry"/>
                </mxCell>
                <mxCell id="cDfVkbfoky6MioHYXXf8-17" value="&lt;span style=&quot;font-size: 16px&quot;&gt;&lt;font color=&quot;#38afff&quot; style=&quot;font-size: 16px&quot;&gt;Nhân viên&lt;/font&gt;&lt;font color=&quot;#000000&quot; style=&quot;font-size: 16px&quot;&gt; / Nguyễn Thị A&lt;/font&gt;&lt;/span&gt;" style="text;html=1;strokeColor=none;fillColor=none;align=left;verticalAlign=middle;whiteSpace=wrap;rounded=0;strokeWidth=4;fontSize=16;" vertex="1" parent="Q_epyf2goezy_2mvQNFF-1">
                    <mxGeometry x="40" y="70" width="190" height="20" as="geometry"/>
                </mxCell>
                <mxCell id="cDfVkbfoky6MioHYXXf8-18" value="&lt;font color=&quot;#000000&quot; style=&quot;font-size: 23px&quot;&gt;&lt;b style=&quot;font-size: 23px&quot;&gt;Nguyễn Thị A&lt;/b&gt;&lt;/font&gt;" style="text;html=1;strokeColor=none;fillColor=none;align=left;verticalAlign=middle;whiteSpace=wrap;rounded=0;strokeWidth=4;fontSize=23;" vertex="1" parent="Q_epyf2goezy_2mvQNFF-1">
                    <mxGeometry x="40" y="110" width="170" height="40" as="geometry"/>
                </mxCell>
                <mxCell id="cDfVkbfoky6MioHYXXf8-37" value="" style="verticalLabelPosition=bottom;shadow=0;dashed=0;align=center;html=1;verticalAlign=top;strokeWidth=1;shape=mxgraph.mockup.markup.line;strokeColor=#999999;rounded=0;labelBackgroundColor=#000000;labelBorderColor=none;pointerEvents=1;fontFamily=Helvetica;fontSize=12;fontColor=none;startSize=0;fillColor=#FFFFFF;gradientColor=none;" vertex="1" parent="Q_epyf2goezy_2mvQNFF-1">
                    <mxGeometry x="40" y="140" width="760" height="20" as="geometry"/>
                </mxCell>
                <mxCell id="cDfVkbfoky6MioHYXXf8-38" value="" style="rounded=0;whiteSpace=wrap;html=1;labelBackgroundColor=#000000;labelBorderColor=#B3B3B3;pointerEvents=1;fontFamily=Helvetica;fontSize=12;fontColor=none;startSize=0;strokeColor=#008A00;fillColor=#FFFFFF;gradientColor=none;" vertex="1" parent="Q_epyf2goezy_2mvQNFF-1">
                    <mxGeometry x="40" y="170" width="760" height="240" as="geometry"/>
                </mxCell>
                <mxCell id="cDfVkbfoky6MioHYXXf8-40" value="" style="verticalLabelPosition=bottom;shadow=0;dashed=0;align=center;html=1;verticalAlign=top;strokeWidth=1;shape=mxgraph.mockup.containers.userFemale;strokeColor=#666666;strokeColor2=#008cff;rounded=0;labelBackgroundColor=#000000;labelBorderColor=#B3B3B3;pointerEvents=1;fontFamily=Helvetica;fontSize=12;fontColor=none;startSize=0;fillColor=#FFFFFF;gradientColor=none;" vertex="1" parent="Q_epyf2goezy_2mvQNFF-1">
                    <mxGeometry x="80" y="180" width="170" height="220" as="geometry"/>
                </mxCell>
                <mxCell id="cDfVkbfoky6MioHYXXf8-41" value="" style="verticalLabelPosition=bottom;shadow=0;dashed=0;align=center;html=1;verticalAlign=top;strokeWidth=1;shape=mxgraph.mockup.markup.line;strokeColor=#999999;rounded=0;labelBackgroundColor=#000000;labelBorderColor=#B3B3B3;pointerEvents=1;fontFamily=Helvetica;fontSize=12;fontColor=none;startSize=0;fillColor=#FFFFFF;gradientColor=none;" vertex="1" parent="Q_epyf2goezy_2mvQNFF-1">
                    <mxGeometry x="320" y="200" width="450" height="20" as="geometry"/>
                </mxCell>
                <mxCell id="cDfVkbfoky6MioHYXXf8-42" value="&lt;b&gt;&lt;font style=&quot;font-size: 13px&quot;&gt;Họ và tên : Nguyễn Thị A&lt;/font&gt;&lt;/b&gt;" style="text;html=1;strokeColor=none;fillColor=none;align=center;verticalAlign=middle;whiteSpace=wrap;rounded=0;labelBackgroundColor=none;labelBorderColor=none;pointerEvents=1;fontFamily=Helvetica;fontSize=12;fontColor=none;startSize=0;" vertex="1" parent="Q_epyf2goezy_2mvQNFF-1">
                    <mxGeometry x="410" y="180" width="260" height="30" as="geometry"/>
                </mxCell>
                <mxCell id="cDfVkbfoky6MioHYXXf8-44" value="Ngày sinh : 01/01/1999" style="text;html=1;strokeColor=none;fillColor=none;align=left;verticalAlign=middle;whiteSpace=wrap;rounded=0;labelBackgroundColor=none;labelBorderColor=none;pointerEvents=1;fontFamily=Helvetica;fontSize=13;fontColor=none;startSize=0;" vertex="1" parent="Q_epyf2goezy_2mvQNFF-1">
                    <mxGeometry x="320" y="220" width="450" height="30" as="geometry"/>
                </mxCell>
                <mxCell id="cDfVkbfoky6MioHYXXf8-45" value="Ngày vào công ty : 30/4/2019" style="text;html=1;strokeColor=none;fillColor=none;align=left;verticalAlign=middle;whiteSpace=wrap;rounded=0;labelBackgroundColor=none;labelBorderColor=none;pointerEvents=1;fontFamily=Helvetica;fontSize=13;fontColor=none;startSize=0;" vertex="1" parent="Q_epyf2goezy_2mvQNFF-1">
                    <mxGeometry x="320" y="250" width="450" height="30" as="geometry"/>
                </mxCell>
                <mxCell id="cDfVkbfoky6MioHYXXf8-46" value="Phòng ban : Sale" style="text;html=1;strokeColor=none;fillColor=none;align=left;verticalAlign=middle;whiteSpace=wrap;rounded=0;labelBackgroundColor=none;labelBorderColor=none;pointerEvents=1;fontFamily=Helvetica;fontSize=13;fontColor=none;startSize=0;" vertex="1" parent="Q_epyf2goezy_2mvQNFF-1">
                    <mxGeometry x="320" y="280" width="450" height="30" as="geometry"/>
                </mxCell>
                <mxCell id="cDfVkbfoky6MioHYXXf8-47" value="Số ngày nghỉ còn lại : 1" style="text;html=1;strokeColor=none;fillColor=none;align=left;verticalAlign=middle;whiteSpace=wrap;rounded=0;labelBackgroundColor=none;labelBorderColor=none;pointerEvents=1;fontFamily=Helvetica;fontSize=13;fontColor=none;startSize=0;" vertex="1" parent="Q_epyf2goezy_2mvQNFF-1">
                    <mxGeometry x="320" y="310" width="450" height="30" as="geometry"/>
                </mxCell>
                <mxCell id="cDfVkbfoky6MioHYXXf8-48" value="Số ngày làm thêm : 1" style="text;html=1;strokeColor=none;fillColor=none;align=left;verticalAlign=middle;whiteSpace=wrap;rounded=0;labelBackgroundColor=none;labelBorderColor=none;pointerEvents=1;fontFamily=Helvetica;fontSize=13;fontColor=none;startSize=0;" vertex="1" parent="Q_epyf2goezy_2mvQNFF-1">
                    <mxGeometry x="320" y="340" width="450" height="30" as="geometry"/>
                </mxCell>
                <mxCell id="3-nXjN7K8t-1fT9dhURK-0" value="Click chuyển về danh sách nhân viên" style="whiteSpace=wrap;html=1;rounded=0;labelBackgroundColor=none;labelBorderColor=none;pointerEvents=1;fontFamily=Helvetica;fontSize=13;fontColor=#000000;startSize=0;strokeColor=#008A00;fillColor=#FFFFFF;gradientColor=none;" vertex="1" parent="Q_epyf2goezy_2mvQNFF-1">
                    <mxGeometry x="-195" y="50" width="120" height="60" as="geometry"/>
                </mxCell>
            </root>
        </mxGraphModel>
    </diagram>
</mxfile>